<svg version="1.1" xmlns="http://www.w3.org/2000/svg" xmlns:xlink="http://www.w3.org/1999/xlink" width="883" height="482"><defs/><g transform="translate(0,0)"><g><rect fill="#FFFFFF" stroke="none" x="0" y="0" width="883" height="482"/></g><g transform="translate(0,0) matrix(1,0,0,1,115,12)"><g><g transform="translate(0,0) scale(1,0.75)"><g><path fill="#6BAF21" stroke="none" d="M 0 0 L 100 0 Q 100 0 100 0 L 100 100 Q 100 100 100 100 L 0 100 Q 0 100 0 100 L 0 0 Q 0 0 0 0 Z"/><g transform="scale(1,1.3333333333333333)"><path fill="none" stroke="#418104" d="M 0 0 L 100 0 Q 100 0 100 0 L 100 75 Q 100 75 100 75 L 0 75 Q 0 75 0 75 L 0 0 Q 0 0 0 0 Z" stroke-miterlimit="10" stroke-width="2"/></g></g><g><g transform="scale(1,1.3333333333333333)"><path fill="rgba(0,0,0,0)" stroke="none" d="M 2 1.5 L 2 72.75 L 97 72.75 L 97 2.25 L 3 2.25 Z" opacity="0"/><path fill="none" stroke="#3C7626" d="M 2 1.5 M 2 1.5 L 2 5.5 M 2 5.5 M 2 7.5 L 2 11.5 M 2 11.5 M 2 13.5 L 2 17.5 M 2 17.5 M 2 19.5 L 2 23.5 M 2 23.5 M 2 25.5 L 2 29.5 M 2 29.5 M 2 31.5 L 2 35.5 M 2 35.5 M 2 37.5 L 2 41.5 M 2 41.5 M 2 43.5 L 2 47.5 M 2 47.5 M 2 49.5 L 2 53.5 M 2 53.5 M 2 55.5 L 2 59.5 M 2 59.5 M 2 61.5 L 2 65.5 M 2 65.5 M 2 67.5 L 2 71.5 M 2 71.5 M 2.75 72.75 L 6.75 72.75 M 6.75 72.75 M 8.75 72.75 L 12.75 72.75 M 12.75 72.75 M 14.75 72.75 L 18.75 72.75 M 18.75 72.75 M 20.75 72.75 L 24.75 72.75 M 24.75 72.75 M 26.75 72.75 L 30.75 72.75 M 30.75 72.75 M 32.75 72.75 L 36.75 72.75 M 36.75 72.75 M 38.75 72.75 L 42.75 72.75 M 42.75 72.75 M 44.75 72.75 L 48.75 72.75 M 48.75 72.75 M 50.75 72.75 L 54.75 72.75 M 54.75 72.75 M 56.75 72.75 L 60.75 72.75 M 60.75 72.75 M 62.75 72.75 L 66.75 72.75 M 66.75 72.75 M 68.75 72.75 L 72.75 72.75 M 72.75 72.75 M 74.75 72.75 L 78.75 72.75 M 78.75 72.75 M 80.75 72.75 L 84.75 72.75 M 84.75 72.75 M 86.75 72.75 L 90.75 72.75 M 90.75 72.75 M 92.75 72.75 L 96.75 72.75 M 96.75 72.75 M 97 71 L 97 67 M 97 67 M 97 65 L 97 61 M 97 61 M 97 59 L 97 55 M 97 55 M 97 53 L 97 49 M 97 49 M 97 47 L 97 43 M 97 43 M 97 41 L 97 37 M 97 37 M 97 35 L 97 31 M 97 31 M 97 29 L 97 25 M 97 25 M 97 23 L 97 19 M 97 19 M 97 17 L 97 13 M 97 13 M 97 11 L 97 7 M 97 7 M 97 5 L 97 2.25 L 95.75 2.25 M 95.75 2.25 M 93.75 2.25 L 89.75 2.25 M 89.75 2.25 M 87.75 2.25 L 83.75 2.25 M 83.75 2.25 M 81.75 2.25 L 77.75 2.25 M 77.75 2.25 M 75.75 2.25 L 71.75 2.25 M 71.75 2.25 M 69.75 2.25 L 65.75 2.25 M 65.75 2.25 M 63.75 2.25 L 59.75 2.25 M 59.75 2.25 M 57.75 2.25 L 53.75 2.25 M 53.75 2.25 M 51.75 2.25 L 47.75 2.25 M 47.75 2.25 M 45.75 2.25 L 41.75 2.25 M 41.75 2.25 M 39.75 2.25 L 35.75 2.25 M 35.75 2.25 M 33.75 2.25 L 29.75 2.25 M 29.75 2.25 M 27.75 2.25 L 23.75 2.25 M 23.75 2.25 M 21.75 2.25 L 17.75 2.25 M 17.75 2.25 M 15.75 2.25 L 11.75 2.25 M 11.75 2.25 M 9.75 2.25 L 5.75 2.25 M 5.75 2.25 M 3.75 2.25 L 3 2.25 Z" stroke-miterlimit="10" stroke-width="2" opacity="0"/></g></g></g></g></g><g transform="scale(1,1) matrix(1,0,0,1,117,12) translate(2,24)"><text fill="rgb(255, 255, 255)" stroke="none" font-family="Arial" font-size="24px" font-style="normal" font-weight="normal" text-decoration="none" x="23.325000762939453" y="21">html</text></g><g transform="translate(0,0) matrix(1,0,0,1,15,126)"><g><g transform="translate(0,0) scale(1,0.75)"><g><path fill="#6BAF21" stroke="none" d="M 0 0 L 100 0 Q 100 0 100 0 L 100 100 Q 100 100 100 100 L 0 100 Q 0 100 0 100 L 0 0 Q 0 0 0 0 Z"/><g transform="scale(1,1.3333333333333333)"><path fill="none" stroke="#418104" d="M 0 0 L 100 0 Q 100 0 100 0 L 100 75 Q 100 75 100 75 L 0 75 Q 0 75 0 75 L 0 0 Q 0 0 0 0 Z" stroke-miterlimit="10" stroke-width="2"/></g></g><g><g transform="scale(1,1.3333333333333333)"><path fill="rgba(0,0,0,0)" stroke="none" d="M 2 1.5 L 2 72.75 L 97 72.75 L 97 2.25 L 3 2.25 Z" opacity="0"/><path fill="none" stroke="#3C7626" d="M 2 1.5 M 2 1.5 L 2 5.5 M 2 5.5 M 2 7.5 L 2 11.5 M 2 11.5 M 2 13.5 L 2 17.5 M 2 17.5 M 2 19.5 L 2 23.5 M 2 23.5 M 2 25.5 L 2 29.5 M 2 29.5 M 2 31.5 L 2 35.5 M 2 35.5 M 2 37.5 L 2 41.5 M 2 41.5 M 2 43.5 L 2 47.5 M 2 47.5 M 2 49.5 L 2 53.5 M 2 53.5 M 2 55.5 L 2 59.5 M 2 59.5 M 2 61.5 L 2 65.5 M 2 65.5 M 2 67.5 L 2 71.5 M 2 71.5 M 2.75 72.75 L 6.75 72.75 M 6.75 72.75 M 8.75 72.75 L 12.75 72.75 M 12.75 72.75 M 14.75 72.75 L 18.75 72.75 M 18.75 72.75 M 20.75 72.75 L 24.75 72.75 M 24.75 72.75 M 26.75 72.75 L 30.75 72.75 M 30.75 72.75 M 32.75 72.75 L 36.75 72.75 M 36.75 72.75 M 38.75 72.75 L 42.75 72.75 M 42.75 72.75 M 44.75 72.75 L 48.75 72.75 M 48.75 72.75 M 50.75 72.75 L 54.75 72.75 M 54.75 72.75 M 56.75 72.75 L 60.75 72.75 M 60.75 72.75 M 62.75 72.75 L 66.75 72.75 M 66.75 72.75 M 68.75 72.75 L 72.75 72.75 M 72.75 72.75 M 74.75 72.75 L 78.75 72.75 M 78.75 72.75 M 80.75 72.75 L 84.75 72.75 M 84.75 72.75 M 86.75 72.75 L 90.75 72.75 M 90.75 72.75 M 92.75 72.75 L 96.75 72.75 M 96.75 72.75 M 97 71 L 97 67 M 97 67 M 97 65 L 97 61 M 97 61 M 97 59 L 97 55 M 97 55 M 97 53 L 97 49 M 97 49 M 97 47 L 97 43 M 97 43 M 97 41 L 97 37 M 97 37 M 97 35 L 97 31 M 97 31 M 97 29 L 97 25 M 97 25 M 97 23 L 97 19 M 97 19 M 97 17 L 97 13 M 97 13 M 97 11 L 97 7 M 97 7 M 97 5 L 97 2.25 L 95.75 2.25 M 95.75 2.25 M 93.75 2.25 L 89.75 2.25 M 89.75 2.25 M 87.75 2.25 L 83.75 2.25 M 83.75 2.25 M 81.75 2.25 L 77.75 2.25 M 77.75 2.25 M 75.75 2.25 L 71.75 2.25 M 71.75 2.25 M 69.75 2.25 L 65.75 2.25 M 65.75 2.25 M 63.75 2.25 L 59.75 2.25 M 59.75 2.25 M 57.75 2.25 L 53.75 2.25 M 53.75 2.25 M 51.75 2.25 L 47.75 2.25 M 47.75 2.25 M 45.75 2.25 L 41.75 2.25 M 41.75 2.25 M 39.75 2.25 L 35.75 2.25 M 35.75 2.25 M 33.75 2.25 L 29.75 2.25 M 29.75 2.25 M 27.75 2.25 L 23.75 2.25 M 23.75 2.25 M 21.75 2.25 L 17.75 2.25 M 17.75 2.25 M 15.75 2.25 L 11.75 2.25 M 11.75 2.25 M 9.75 2.25 L 5.75 2.25 M 5.75 2.25 M 3.75 2.25 L 3 2.25 Z" stroke-miterlimit="10" stroke-width="2" opacity="0"/></g></g></g></g></g><g transform="scale(1,1) matrix(1,0,0,1,17,126) translate(2,24)"><text fill="rgb(255, 255, 255)" stroke="none" font-family="Arial" font-size="24px" font-style="normal" font-weight="normal" text-decoration="none" x="19.299999237060547" y="21">head</text></g><g transform="translate(0,0) matrix(1,0,0,1,215,126)"><g><g transform="translate(0,0) scale(1,0.75)"><g><path fill="#6BAF21" stroke="none" d="M 0 0 L 100 0 Q 100 0 100 0 L 100 100 Q 100 100 100 100 L 0 100 Q 0 100 0 100 L 0 0 Q 0 0 0 0 Z"/><g transform="scale(1,1.3333333333333333)"><path fill="none" stroke="#418104" d="M 0 0 L 100 0 Q 100 0 100 0 L 100 75 Q 100 75 100 75 L 0 75 Q 0 75 0 75 L 0 0 Q 0 0 0 0 Z" stroke-miterlimit="10" stroke-width="2"/></g></g><g><g transform="scale(1,1.3333333333333333)"><path fill="rgba(0,0,0,0)" stroke="none" d="M 2 1.5 L 2 72.75 L 97 72.75 L 97 2.25 L 3 2.25 Z" opacity="0"/><path fill="none" stroke="#3C7626" d="M 2 1.5 M 2 1.5 L 2 5.5 M 2 5.5 M 2 7.5 L 2 11.5 M 2 11.5 M 2 13.5 L 2 17.5 M 2 17.5 M 2 19.5 L 2 23.5 M 2 23.5 M 2 25.5 L 2 29.5 M 2 29.5 M 2 31.5 L 2 35.5 M 2 35.5 M 2 37.5 L 2 41.5 M 2 41.5 M 2 43.5 L 2 47.5 M 2 47.5 M 2 49.5 L 2 53.5 M 2 53.5 M 2 55.5 L 2 59.5 M 2 59.5 M 2 61.5 L 2 65.5 M 2 65.5 M 2 67.5 L 2 71.5 M 2 71.5 M 2.75 72.75 L 6.75 72.75 M 6.75 72.75 M 8.75 72.75 L 12.75 72.75 M 12.75 72.75 M 14.75 72.75 L 18.75 72.75 M 18.75 72.75 M 20.75 72.75 L 24.75 72.75 M 24.75 72.75 M 26.75 72.75 L 30.75 72.75 M 30.75 72.75 M 32.75 72.75 L 36.75 72.75 M 36.75 72.75 M 38.75 72.75 L 42.75 72.75 M 42.75 72.75 M 44.75 72.75 L 48.75 72.75 M 48.75 72.75 M 50.75 72.75 L 54.75 72.75 M 54.75 72.75 M 56.75 72.75 L 60.75 72.75 M 60.75 72.75 M 62.75 72.75 L 66.75 72.75 M 66.75 72.75 M 68.75 72.75 L 72.75 72.75 M 72.75 72.75 M 74.75 72.75 L 78.75 72.75 M 78.75 72.75 M 80.75 72.75 L 84.75 72.75 M 84.75 72.75 M 86.75 72.75 L 90.75 72.75 M 90.75 72.75 M 92.75 72.75 L 96.75 72.75 M 96.75 72.75 M 97 71 L 97 67 M 97 67 M 97 65 L 97 61 M 97 61 M 97 59 L 97 55 M 97 55 M 97 53 L 97 49 M 97 49 M 97 47 L 97 43 M 97 43 M 97 41 L 97 37 M 97 37 M 97 35 L 97 31 M 97 31 M 97 29 L 97 25 M 97 25 M 97 23 L 97 19 M 97 19 M 97 17 L 97 13 M 97 13 M 97 11 L 97 7 M 97 7 M 97 5 L 97 2.25 L 95.75 2.25 M 95.75 2.25 M 93.75 2.25 L 89.75 2.25 M 89.75 2.25 M 87.75 2.25 L 83.75 2.25 M 83.75 2.25 M 81.75 2.25 L 77.75 2.25 M 77.75 2.25 M 75.75 2.25 L 71.75 2.25 M 71.75 2.25 M 69.75 2.25 L 65.75 2.25 M 65.75 2.25 M 63.75 2.25 L 59.75 2.25 M 59.75 2.25 M 57.75 2.25 L 53.75 2.25 M 53.75 2.25 M 51.75 2.25 L 47.75 2.25 M 47.75 2.25 M 45.75 2.25 L 41.75 2.25 M 41.75 2.25 M 39.75 2.25 L 35.75 2.25 M 35.75 2.25 M 33.75 2.25 L 29.75 2.25 M 29.75 2.25 M 27.75 2.25 L 23.75 2.25 M 23.75 2.25 M 21.75 2.25 L 17.75 2.25 M 17.75 2.25 M 15.75 2.25 L 11.75 2.25 M 11.75 2.25 M 9.75 2.25 L 5.75 2.25 M 5.75 2.25 M 3.75 2.25 L 3 2.25 Z" stroke-miterlimit="10" stroke-width="2" opacity="0"/></g></g></g></g></g><g transform="scale(1,1) matrix(1,0,0,1,217,126) translate(2,24)"><text fill="rgb(255, 255, 255)" stroke="none" font-family="Arial" font-size="24px" font-style="normal" font-weight="normal" text-decoration="none" x="19.975000381469727" y="21">body</text></g><g transform="matrix(1,0,0,1,60.5,45)"><g transform="translate(0,0)"><g transform="translate(-112,-49) translate(51.5,4) matrix(1,0,0,1,0,0)"><g><path fill="none" stroke="#418104" d="M 115 49.5 L 65 126" stroke-miterlimit="10" stroke-width="2"/></g></g></g></g><g transform="matrix(1,0,0,1,210.5,45)"><g transform="translate(0,0)"><g transform="translate(-215,-54) translate(4.5,9) matrix(1,0,0,1,0,0)"><g><path fill="none" stroke="#418104" d="M 215 49.5 L 265 126" stroke-miterlimit="10" stroke-width="2"/></g></g></g></g><g transform="translate(0,0) matrix(1,0,0,1,15,236)"><g><g transform="translate(0,0) scale(1,0.75)"><g><path fill="#6BAF21" stroke="none" d="M 0 0 L 100 0 Q 100 0 100 0 L 100 100 Q 100 100 100 100 L 0 100 Q 0 100 0 100 L 0 0 Q 0 0 0 0 Z"/><g transform="scale(1,1.3333333333333333)"><path fill="none" stroke="#418104" d="M 0 0 L 100 0 Q 100 0 100 0 L 100 75 Q 100 75 100 75 L 0 75 Q 0 75 0 75 L 0 0 Q 0 0 0 0 Z" stroke-miterlimit="10" stroke-width="2"/></g></g><g><g transform="scale(1,1.3333333333333333)"><path fill="rgba(0,0,0,0)" stroke="none" d="M 2 1.5 L 2 72.75 L 97 72.75 L 97 2.25 L 3 2.25 Z" opacity="0"/><path fill="none" stroke="#3C7626" d="M 2 1.5 M 2 1.5 L 2 5.5 M 2 5.5 M 2 7.5 L 2 11.5 M 2 11.5 M 2 13.5 L 2 17.5 M 2 17.5 M 2 19.5 L 2 23.5 M 2 23.5 M 2 25.5 L 2 29.5 M 2 29.5 M 2 31.5 L 2 35.5 M 2 35.5 M 2 37.5 L 2 41.5 M 2 41.5 M 2 43.5 L 2 47.5 M 2 47.5 M 2 49.5 L 2 53.5 M 2 53.5 M 2 55.5 L 2 59.5 M 2 59.5 M 2 61.5 L 2 65.5 M 2 65.5 M 2 67.5 L 2 71.5 M 2 71.5 M 2.75 72.75 L 6.75 72.75 M 6.75 72.75 M 8.75 72.75 L 12.75 72.75 M 12.75 72.75 M 14.75 72.75 L 18.75 72.75 M 18.75 72.75 M 20.75 72.75 L 24.75 72.75 M 24.75 72.75 M 26.75 72.75 L 30.75 72.75 M 30.75 72.75 M 32.75 72.75 L 36.75 72.75 M 36.75 72.75 M 38.75 72.75 L 42.75 72.75 M 42.75 72.75 M 44.75 72.75 L 48.75 72.75 M 48.75 72.75 M 50.75 72.75 L 54.75 72.75 M 54.75 72.75 M 56.75 72.75 L 60.75 72.75 M 60.75 72.75 M 62.75 72.75 L 66.75 72.75 M 66.75 72.75 M 68.75 72.75 L 72.75 72.75 M 72.75 72.75 M 74.75 72.75 L 78.75 72.75 M 78.75 72.75 M 80.75 72.75 L 84.75 72.75 M 84.75 72.75 M 86.75 72.75 L 90.75 72.75 M 90.75 72.75 M 92.75 72.75 L 96.75 72.75 M 96.75 72.75 M 97 71 L 97 67 M 97 67 M 97 65 L 97 61 M 97 61 M 97 59 L 97 55 M 97 55 M 97 53 L 97 49 M 97 49 M 97 47 L 97 43 M 97 43 M 97 41 L 97 37 M 97 37 M 97 35 L 97 31 M 97 31 M 97 29 L 97 25 M 97 25 M 97 23 L 97 19 M 97 19 M 97 17 L 97 13 M 97 13 M 97 11 L 97 7 M 97 7 M 97 5 L 97 2.25 L 95.75 2.25 M 95.75 2.25 M 93.75 2.25 L 89.75 2.25 M 89.75 2.25 M 87.75 2.25 L 83.75 2.25 M 83.75 2.25 M 81.75 2.25 L 77.75 2.25 M 77.75 2.25 M 75.75 2.25 L 71.75 2.25 M 71.75 2.25 M 69.75 2.25 L 65.75 2.25 M 65.75 2.25 M 63.75 2.25 L 59.75 2.25 M 59.75 2.25 M 57.75 2.25 L 53.75 2.25 M 53.75 2.25 M 51.75 2.25 L 47.75 2.25 M 47.75 2.25 M 45.75 2.25 L 41.75 2.25 M 41.75 2.25 M 39.75 2.25 L 35.75 2.25 M 35.75 2.25 M 33.75 2.25 L 29.75 2.25 M 29.75 2.25 M 27.75 2.25 L 23.75 2.25 M 23.75 2.25 M 21.75 2.25 L 17.75 2.25 M 17.75 2.25 M 15.75 2.25 L 11.75 2.25 M 11.75 2.25 M 9.75 2.25 L 5.75 2.25 M 5.75 2.25 M 3.75 2.25 L 3 2.25 Z" stroke-miterlimit="10" stroke-width="2" opacity="0"/></g></g></g></g></g><g transform="scale(1,1) matrix(1,0,0,1,17,236) translate(2,24)"><text fill="rgb(255, 255, 255)" stroke="none" font-family="Arial" font-size="24px" font-style="normal" font-weight="normal" text-decoration="none" x="27.325000762939453" y="21">title</text></g><g transform="matrix(1,0,0,1,60.5,196.5)"><g transform="translate(0,0)"><g transform="translate(-65,-205) translate(4.5,8.5) matrix(1,0,0,1,0,0)"><g><path fill="none" stroke="#418104" d="M 65 201 L 65 236" stroke-miterlimit="10" stroke-width="2"/></g></g></g></g><g transform="translate(0,0) matrix(1,0,0,1,215,236)"><g><g transform="translate(0,0) scale(1,0.75)"><g><path fill="#6BAF21" stroke="none" d="M 0 0 L 100 0 Q 100 0 100 0 L 100 100 Q 100 100 100 100 L 0 100 Q 0 100 0 100 L 0 0 Q 0 0 0 0 Z"/><g transform="scale(1,1.3333333333333333)"><path fill="none" stroke="#418104" d="M 0 0 L 100 0 Q 100 0 100 0 L 100 75 Q 100 75 100 75 L 0 75 Q 0 75 0 75 L 0 0 Q 0 0 0 0 Z" stroke-miterlimit="10" stroke-width="2"/></g></g><g><g transform="scale(1,1.3333333333333333)"><path fill="rgba(0,0,0,0)" stroke="none" d="M 2 1.5 L 2 72.75 L 97 72.75 L 97 2.25 L 3 2.25 Z" opacity="0"/><path fill="none" stroke="#3C7626" d="M 2 1.5 M 2 1.5 L 2 5.5 M 2 5.5 M 2 7.5 L 2 11.5 M 2 11.5 M 2 13.5 L 2 17.5 M 2 17.5 M 2 19.5 L 2 23.5 M 2 23.5 M 2 25.5 L 2 29.5 M 2 29.5 M 2 31.5 L 2 35.5 M 2 35.5 M 2 37.5 L 2 41.5 M 2 41.5 M 2 43.5 L 2 47.5 M 2 47.5 M 2 49.5 L 2 53.5 M 2 53.5 M 2 55.5 L 2 59.5 M 2 59.5 M 2 61.5 L 2 65.5 M 2 65.5 M 2 67.5 L 2 71.5 M 2 71.5 M 2.75 72.75 L 6.75 72.75 M 6.75 72.75 M 8.75 72.75 L 12.75 72.75 M 12.75 72.75 M 14.75 72.75 L 18.75 72.75 M 18.75 72.75 M 20.75 72.75 L 24.75 72.75 M 24.75 72.75 M 26.75 72.75 L 30.75 72.75 M 30.75 72.75 M 32.75 72.75 L 36.75 72.75 M 36.75 72.75 M 38.75 72.75 L 42.75 72.75 M 42.75 72.75 M 44.75 72.75 L 48.75 72.75 M 48.75 72.75 M 50.75 72.75 L 54.75 72.75 M 54.75 72.75 M 56.75 72.75 L 60.75 72.75 M 60.75 72.75 M 62.75 72.75 L 66.75 72.75 M 66.75 72.75 M 68.75 72.75 L 72.75 72.75 M 72.75 72.75 M 74.75 72.75 L 78.75 72.75 M 78.75 72.75 M 80.75 72.75 L 84.75 72.75 M 84.75 72.75 M 86.75 72.75 L 90.75 72.75 M 90.75 72.75 M 92.75 72.75 L 96.75 72.75 M 96.75 72.75 M 97 71 L 97 67 M 97 67 M 97 65 L 97 61 M 97 61 M 97 59 L 97 55 M 97 55 M 97 53 L 97 49 M 97 49 M 97 47 L 97 43 M 97 43 M 97 41 L 97 37 M 97 37 M 97 35 L 97 31 M 97 31 M 97 29 L 97 25 M 97 25 M 97 23 L 97 19 M 97 19 M 97 17 L 97 13 M 97 13 M 97 11 L 97 7 M 97 7 M 97 5 L 97 2.25 L 95.75 2.25 M 95.75 2.25 M 93.75 2.25 L 89.75 2.25 M 89.75 2.25 M 87.75 2.25 L 83.75 2.25 M 83.75 2.25 M 81.75 2.25 L 77.75 2.25 M 77.75 2.25 M 75.75 2.25 L 71.75 2.25 M 71.75 2.25 M 69.75 2.25 L 65.75 2.25 M 65.75 2.25 M 63.75 2.25 L 59.75 2.25 M 59.75 2.25 M 57.75 2.25 L 53.75 2.25 M 53.75 2.25 M 51.75 2.25 L 47.75 2.25 M 47.75 2.25 M 45.75 2.25 L 41.75 2.25 M 41.75 2.25 M 39.75 2.25 L 35.75 2.25 M 35.75 2.25 M 33.75 2.25 L 29.75 2.25 M 29.75 2.25 M 27.75 2.25 L 23.75 2.25 M 23.75 2.25 M 21.75 2.25 L 17.75 2.25 M 17.75 2.25 M 15.75 2.25 L 11.75 2.25 M 11.75 2.25 M 9.75 2.25 L 5.75 2.25 M 5.75 2.25 M 3.75 2.25 L 3 2.25 Z" stroke-miterlimit="10" stroke-width="2" opacity="0"/></g></g></g></g></g><g transform="scale(1,1) matrix(1,0,0,1,217,236) translate(2,24)"><text fill="rgb(255, 255, 255)" stroke="none" font-family="Arial" font-size="24px" font-style="normal" font-weight="normal" text-decoration="none" x="32.64999961853027" y="21">h2</text></g><g transform="translate(0,0) matrix(1,0,0,1,352,236)"><g><g transform="translate(0,0) scale(1,0.75)"><g><path fill="#6BAF21" stroke="none" d="M 0 0 L 100 0 Q 100 0 100 0 L 100 100 Q 100 100 100 100 L 0 100 Q 0 100 0 100 L 0 0 Q 0 0 0 0 Z"/><g transform="scale(1,1.3333333333333333)"><path fill="none" stroke="#418104" d="M 0 0 L 100 0 Q 100 0 100 0 L 100 75 Q 100 75 100 75 L 0 75 Q 0 75 0 75 L 0 0 Q 0 0 0 0 Z" stroke-miterlimit="10" stroke-width="2"/></g></g><g><g transform="scale(1,1.3333333333333333)"><path fill="rgba(0,0,0,0)" stroke="none" d="M 2 1.5 L 2 72.75 L 97 72.75 L 97 2.25 L 3 2.25 Z" opacity="0"/><path fill="none" stroke="#3C7626" d="M 2 1.5 M 2 1.5 L 2 5.5 M 2 5.5 M 2 7.5 L 2 11.5 M 2 11.5 M 2 13.5 L 2 17.5 M 2 17.5 M 2 19.5 L 2 23.5 M 2 23.5 M 2 25.5 L 2 29.5 M 2 29.5 M 2 31.5 L 2 35.5 M 2 35.5 M 2 37.5 L 2 41.5 M 2 41.5 M 2 43.5 L 2 47.5 M 2 47.5 M 2 49.5 L 2 53.5 M 2 53.5 M 2 55.5 L 2 59.5 M 2 59.5 M 2 61.5 L 2 65.5 M 2 65.5 M 2 67.5 L 2 71.5 M 2 71.5 M 2.75 72.75 L 6.75 72.75 M 6.75 72.75 M 8.75 72.75 L 12.75 72.75 M 12.75 72.75 M 14.75 72.75 L 18.75 72.75 M 18.75 72.75 M 20.75 72.75 L 24.75 72.75 M 24.75 72.75 M 26.75 72.75 L 30.75 72.75 M 30.75 72.75 M 32.75 72.75 L 36.75 72.75 M 36.75 72.75 M 38.75 72.75 L 42.75 72.75 M 42.75 72.75 M 44.75 72.75 L 48.75 72.75 M 48.75 72.75 M 50.75 72.75 L 54.75 72.75 M 54.75 72.75 M 56.75 72.75 L 60.75 72.75 M 60.75 72.75 M 62.75 72.75 L 66.75 72.75 M 66.75 72.75 M 68.75 72.75 L 72.75 72.75 M 72.75 72.75 M 74.75 72.75 L 78.75 72.75 M 78.75 72.75 M 80.75 72.75 L 84.75 72.75 M 84.75 72.75 M 86.75 72.75 L 90.75 72.75 M 90.75 72.75 M 92.75 72.75 L 96.75 72.75 M 96.75 72.75 M 97 71 L 97 67 M 97 67 M 97 65 L 97 61 M 97 61 M 97 59 L 97 55 M 97 55 M 97 53 L 97 49 M 97 49 M 97 47 L 97 43 M 97 43 M 97 41 L 97 37 M 97 37 M 97 35 L 97 31 M 97 31 M 97 29 L 97 25 M 97 25 M 97 23 L 97 19 M 97 19 M 97 17 L 97 13 M 97 13 M 97 11 L 97 7 M 97 7 M 97 5 L 97 2.25 L 95.75 2.25 M 95.75 2.25 M 93.75 2.25 L 89.75 2.25 M 89.75 2.25 M 87.75 2.25 L 83.75 2.25 M 83.75 2.25 M 81.75 2.25 L 77.75 2.25 M 77.75 2.25 M 75.75 2.25 L 71.75 2.25 M 71.75 2.25 M 69.75 2.25 L 65.75 2.25 M 65.75 2.25 M 63.75 2.25 L 59.75 2.25 M 59.75 2.25 M 57.75 2.25 L 53.75 2.25 M 53.75 2.25 M 51.75 2.25 L 47.75 2.25 M 47.75 2.25 M 45.75 2.25 L 41.75 2.25 M 41.75 2.25 M 39.75 2.25 L 35.75 2.25 M 35.75 2.25 M 33.75 2.25 L 29.75 2.25 M 29.75 2.25 M 27.75 2.25 L 23.75 2.25 M 23.75 2.25 M 21.75 2.25 L 17.75 2.25 M 17.75 2.25 M 15.75 2.25 L 11.75 2.25 M 11.75 2.25 M 9.75 2.25 L 5.75 2.25 M 5.75 2.25 M 3.75 2.25 L 3 2.25 Z" stroke-miterlimit="10" stroke-width="2" opacity="0"/></g></g></g></g></g><g transform="scale(1,1) matrix(1,0,0,1,354,236) translate(2,24)"><text fill="rgb(255, 255, 255)" stroke="none" font-family="Arial" font-size="24px" font-style="normal" font-weight="normal" text-decoration="none" x="30.658333778381348" y="21">div</text></g><g transform="translate(0,0) matrix(1,0,0,1,492,236)"><g><g transform="translate(0,0) scale(1,0.75)"><g><path fill="#ff9900" stroke="none" d="M 0 0 L 100 0 Q 100 0 100 0 L 100 100 Q 100 100 100 100 L 0 100 Q 0 100 0 100 L 0 0 Q 0 0 0 0 Z"/><g transform="scale(1,1.3333333333333333)"><path fill="none" stroke="#418104" d="M 0 0 L 100 0 Q 100 0 100 0 L 100 75 Q 100 75 100 75 L 0 75 Q 0 75 0 75 L 0 0 Q 0 0 0 0 Z" stroke-miterlimit="10" stroke-width="2"/></g></g><g><g transform="scale(1,1.3333333333333333)"><path fill="rgba(0,0,0,0)" stroke="none" d="M 2 1.5 L 2 72.75 L 97 72.75 L 97 2.25 L 3 2.25 Z" opacity="0"/><path fill="none" stroke="#3C7626" d="M 2 1.5 M 2 1.5 L 2 5.5 M 2 5.5 M 2 7.5 L 2 11.5 M 2 11.5 M 2 13.5 L 2 17.5 M 2 17.5 M 2 19.5 L 2 23.5 M 2 23.5 M 2 25.5 L 2 29.5 M 2 29.5 M 2 31.5 L 2 35.5 M 2 35.5 M 2 37.5 L 2 41.5 M 2 41.5 M 2 43.5 L 2 47.5 M 2 47.5 M 2 49.5 L 2 53.5 M 2 53.5 M 2 55.5 L 2 59.5 M 2 59.5 M 2 61.5 L 2 65.5 M 2 65.5 M 2 67.5 L 2 71.5 M 2 71.5 M 2.75 72.75 L 6.75 72.75 M 6.75 72.75 M 8.75 72.75 L 12.75 72.75 M 12.75 72.75 M 14.75 72.75 L 18.75 72.75 M 18.75 72.75 M 20.75 72.75 L 24.75 72.75 M 24.75 72.75 M 26.75 72.75 L 30.75 72.75 M 30.75 72.75 M 32.75 72.75 L 36.75 72.75 M 36.75 72.75 M 38.75 72.75 L 42.75 72.75 M 42.75 72.75 M 44.75 72.75 L 48.75 72.75 M 48.75 72.75 M 50.75 72.75 L 54.75 72.75 M 54.75 72.75 M 56.75 72.75 L 60.75 72.75 M 60.75 72.75 M 62.75 72.75 L 66.75 72.75 M 66.75 72.75 M 68.75 72.75 L 72.75 72.75 M 72.75 72.75 M 74.75 72.75 L 78.75 72.75 M 78.75 72.75 M 80.75 72.75 L 84.75 72.75 M 84.75 72.75 M 86.75 72.75 L 90.75 72.75 M 90.75 72.75 M 92.75 72.75 L 96.75 72.75 M 96.75 72.75 M 97 71 L 97 67 M 97 67 M 97 65 L 97 61 M 97 61 M 97 59 L 97 55 M 97 55 M 97 53 L 97 49 M 97 49 M 97 47 L 97 43 M 97 43 M 97 41 L 97 37 M 97 37 M 97 35 L 97 31 M 97 31 M 97 29 L 97 25 M 97 25 M 97 23 L 97 19 M 97 19 M 97 17 L 97 13 M 97 13 M 97 11 L 97 7 M 97 7 M 97 5 L 97 2.25 L 95.75 2.25 M 95.75 2.25 M 93.75 2.25 L 89.75 2.25 M 89.75 2.25 M 87.75 2.25 L 83.75 2.25 M 83.75 2.25 M 81.75 2.25 L 77.75 2.25 M 77.75 2.25 M 75.75 2.25 L 71.75 2.25 M 71.75 2.25 M 69.75 2.25 L 65.75 2.25 M 65.75 2.25 M 63.75 2.25 L 59.75 2.25 M 59.75 2.25 M 57.75 2.25 L 53.75 2.25 M 53.75 2.25 M 51.75 2.25 L 47.75 2.25 M 47.75 2.25 M 45.75 2.25 L 41.75 2.25 M 41.75 2.25 M 39.75 2.25 L 35.75 2.25 M 35.75 2.25 M 33.75 2.25 L 29.75 2.25 M 29.75 2.25 M 27.75 2.25 L 23.75 2.25 M 23.75 2.25 M 21.75 2.25 L 17.75 2.25 M 17.75 2.25 M 15.75 2.25 L 11.75 2.25 M 11.75 2.25 M 9.75 2.25 L 5.75 2.25 M 5.75 2.25 M 3.75 2.25 L 3 2.25 Z" stroke-miterlimit="10" stroke-width="2" opacity="0"/></g></g></g></g></g><g transform="scale(1,1) matrix(1,0,0,1,494,236) translate(2,24)"><text fill="rgb(255, 255, 255)" stroke="none" font-family="Arial" font-size="24px" font-style="normal" font-weight="normal" text-decoration="none" x="36.65833377838135" y="21">ul</text></g><g transform="translate(0,0) matrix(1,0,0,1,402,346)"><g><g transform="translate(0,0) scale(1,0.75)"><g><path fill="#6BAF21" stroke="none" d="M 0 0 L 100 0 Q 100 0 100 0 L 100 100 Q 100 100 100 100 L 0 100 Q 0 100 0 100 L 0 0 Q 0 0 0 0 Z"/><g transform="scale(1,1.3333333333333333)"><path fill="none" stroke="#418104" d="M 0 0 L 100 0 Q 100 0 100 0 L 100 75 Q 100 75 100 75 L 0 75 Q 0 75 0 75 L 0 0 Q 0 0 0 0 Z" stroke-miterlimit="10" stroke-width="2"/></g></g><g><g transform="scale(1,1.3333333333333333)"><path fill="rgba(0,0,0,0)" stroke="none" d="M 2 1.5 L 2 72.75 L 97 72.75 L 97 2.25 L 3 2.25 Z" opacity="0"/><path fill="none" stroke="#3C7626" d="M 2 1.5 M 2 1.5 L 2 5.5 M 2 5.5 M 2 7.5 L 2 11.5 M 2 11.5 M 2 13.5 L 2 17.5 M 2 17.5 M 2 19.5 L 2 23.5 M 2 23.5 M 2 25.5 L 2 29.5 M 2 29.5 M 2 31.5 L 2 35.5 M 2 35.5 M 2 37.5 L 2 41.5 M 2 41.5 M 2 43.5 L 2 47.5 M 2 47.5 M 2 49.5 L 2 53.5 M 2 53.5 M 2 55.5 L 2 59.5 M 2 59.5 M 2 61.5 L 2 65.5 M 2 65.5 M 2 67.5 L 2 71.5 M 2 71.5 M 2.75 72.75 L 6.75 72.75 M 6.75 72.75 M 8.75 72.75 L 12.75 72.75 M 12.75 72.75 M 14.75 72.75 L 18.75 72.75 M 18.75 72.75 M 20.75 72.75 L 24.75 72.75 M 24.75 72.75 M 26.75 72.75 L 30.75 72.75 M 30.75 72.75 M 32.75 72.75 L 36.75 72.75 M 36.75 72.75 M 38.75 72.75 L 42.75 72.75 M 42.75 72.75 M 44.75 72.75 L 48.75 72.75 M 48.75 72.75 M 50.75 72.75 L 54.75 72.75 M 54.75 72.75 M 56.75 72.75 L 60.75 72.75 M 60.75 72.75 M 62.75 72.75 L 66.75 72.75 M 66.75 72.75 M 68.75 72.75 L 72.75 72.75 M 72.75 72.75 M 74.75 72.75 L 78.75 72.75 M 78.75 72.75 M 80.75 72.75 L 84.75 72.75 M 84.75 72.75 M 86.75 72.75 L 90.75 72.75 M 90.75 72.75 M 92.75 72.75 L 96.75 72.75 M 96.75 72.75 M 97 71 L 97 67 M 97 67 M 97 65 L 97 61 M 97 61 M 97 59 L 97 55 M 97 55 M 97 53 L 97 49 M 97 49 M 97 47 L 97 43 M 97 43 M 97 41 L 97 37 M 97 37 M 97 35 L 97 31 M 97 31 M 97 29 L 97 25 M 97 25 M 97 23 L 97 19 M 97 19 M 97 17 L 97 13 M 97 13 M 97 11 L 97 7 M 97 7 M 97 5 L 97 2.25 L 95.75 2.25 M 95.75 2.25 M 93.75 2.25 L 89.75 2.25 M 89.75 2.25 M 87.75 2.25 L 83.75 2.25 M 83.75 2.25 M 81.75 2.25 L 77.75 2.25 M 77.75 2.25 M 75.75 2.25 L 71.75 2.25 M 71.75 2.25 M 69.75 2.25 L 65.75 2.25 M 65.75 2.25 M 63.75 2.25 L 59.75 2.25 M 59.75 2.25 M 57.75 2.25 L 53.75 2.25 M 53.75 2.25 M 51.75 2.25 L 47.75 2.25 M 47.75 2.25 M 45.75 2.25 L 41.75 2.25 M 41.75 2.25 M 39.75 2.25 L 35.75 2.25 M 35.75 2.25 M 33.75 2.25 L 29.75 2.25 M 29.75 2.25 M 27.75 2.25 L 23.75 2.25 M 23.75 2.25 M 21.75 2.25 L 17.75 2.25 M 17.75 2.25 M 15.75 2.25 L 11.75 2.25 M 11.75 2.25 M 9.75 2.25 L 5.75 2.25 M 5.75 2.25 M 3.75 2.25 L 3 2.25 Z" stroke-miterlimit="10" stroke-width="2" opacity="0"/></g></g></g></g></g><g transform="scale(1,1) matrix(1,0,0,1,404,346) translate(2,24)"><text fill="rgb(255, 255, 255)" stroke="none" font-family="Arial" font-size="24px" font-style="normal" font-weight="normal" text-decoration="none" x="39.32499980926514" y="21">p</text></g><g transform="translate(0,0) matrix(1,0,0,1,280,346)"><g><g transform="translate(0,0) scale(1,0.75)"><g><path fill="#6BAF21" stroke="none" d="M 0 0 L 100 0 Q 100 0 100 0 L 100 100 Q 100 100 100 100 L 0 100 Q 0 100 0 100 L 0 0 Q 0 0 0 0 Z"/><g transform="scale(1,1.3333333333333333)"><path fill="none" stroke="#418104" d="M 0 0 L 100 0 Q 100 0 100 0 L 100 75 Q 100 75 100 75 L 0 75 Q 0 75 0 75 L 0 0 Q 0 0 0 0 Z" stroke-miterlimit="10" stroke-width="2"/></g></g><g><g transform="scale(1,1.3333333333333333)"><path fill="rgba(0,0,0,0)" stroke="none" d="M 2 1.5 L 2 72.75 L 97 72.75 L 97 2.25 L 3 2.25 Z" opacity="0"/><path fill="none" stroke="#3C7626" d="M 2 1.5 M 2 1.5 L 2 5.5 M 2 5.5 M 2 7.5 L 2 11.5 M 2 11.5 M 2 13.5 L 2 17.5 M 2 17.5 M 2 19.5 L 2 23.5 M 2 23.5 M 2 25.5 L 2 29.5 M 2 29.5 M 2 31.5 L 2 35.5 M 2 35.5 M 2 37.5 L 2 41.5 M 2 41.5 M 2 43.5 L 2 47.5 M 2 47.5 M 2 49.5 L 2 53.5 M 2 53.5 M 2 55.5 L 2 59.5 M 2 59.5 M 2 61.5 L 2 65.5 M 2 65.5 M 2 67.5 L 2 71.5 M 2 71.5 M 2.75 72.75 L 6.75 72.75 M 6.75 72.75 M 8.75 72.75 L 12.75 72.75 M 12.75 72.75 M 14.75 72.75 L 18.75 72.75 M 18.75 72.75 M 20.75 72.75 L 24.75 72.75 M 24.75 72.75 M 26.75 72.75 L 30.75 72.75 M 30.75 72.75 M 32.75 72.75 L 36.75 72.75 M 36.75 72.75 M 38.75 72.75 L 42.75 72.75 M 42.75 72.75 M 44.75 72.75 L 48.75 72.75 M 48.75 72.75 M 50.75 72.75 L 54.75 72.75 M 54.75 72.75 M 56.75 72.75 L 60.75 72.75 M 60.75 72.75 M 62.75 72.75 L 66.75 72.75 M 66.75 72.75 M 68.75 72.75 L 72.75 72.75 M 72.75 72.75 M 74.75 72.75 L 78.75 72.75 M 78.75 72.75 M 80.75 72.75 L 84.75 72.75 M 84.75 72.75 M 86.75 72.75 L 90.75 72.75 M 90.75 72.75 M 92.75 72.75 L 96.75 72.75 M 96.75 72.75 M 97 71 L 97 67 M 97 67 M 97 65 L 97 61 M 97 61 M 97 59 L 97 55 M 97 55 M 97 53 L 97 49 M 97 49 M 97 47 L 97 43 M 97 43 M 97 41 L 97 37 M 97 37 M 97 35 L 97 31 M 97 31 M 97 29 L 97 25 M 97 25 M 97 23 L 97 19 M 97 19 M 97 17 L 97 13 M 97 13 M 97 11 L 97 7 M 97 7 M 97 5 L 97 2.25 L 95.75 2.25 M 95.75 2.25 M 93.75 2.25 L 89.75 2.25 M 89.75 2.25 M 87.75 2.25 L 83.75 2.25 M 83.75 2.25 M 81.75 2.25 L 77.75 2.25 M 77.75 2.25 M 75.75 2.25 L 71.75 2.25 M 71.75 2.25 M 69.75 2.25 L 65.75 2.25 M 65.75 2.25 M 63.75 2.25 L 59.75 2.25 M 59.75 2.25 M 57.75 2.25 L 53.75 2.25 M 53.75 2.25 M 51.75 2.25 L 47.75 2.25 M 47.75 2.25 M 45.75 2.25 L 41.75 2.25 M 41.75 2.25 M 39.75 2.25 L 35.75 2.25 M 35.75 2.25 M 33.75 2.25 L 29.75 2.25 M 29.75 2.25 M 27.75 2.25 L 23.75 2.25 M 23.75 2.25 M 21.75 2.25 L 17.75 2.25 M 17.75 2.25 M 15.75 2.25 L 11.75 2.25 M 11.75 2.25 M 9.75 2.25 L 5.75 2.25 M 5.75 2.25 M 3.75 2.25 L 3 2.25 Z" stroke-miterlimit="10" stroke-width="2" opacity="0"/></g></g></g></g></g><g transform="scale(1,1) matrix(1,0,0,1,282,346) translate(2,24)"><text fill="rgb(255, 255, 255)" stroke="none" font-family="Arial" font-size="24px" font-style="normal" font-weight="normal" text-decoration="none" x="32.64999961853027" y="21">h3</text></g><g transform="matrix(1,0,0,1,240.5,196.5)"><g transform="translate(0,0)"><g transform="translate(-249,-201) translate(8.5,4.5) matrix(1,0,0,1,0,0)"><g><path fill="none" stroke="#418104" d="M 245 201 L 245 236" stroke-miterlimit="10" stroke-width="2"/></g></g></g></g><g transform="matrix(1,0,0,1,260.5,196.5)"><g transform="translate(0,0)"><g transform="translate(-286,-207) translate(25.5,10.5) matrix(1,0,0,1,0,0)"><g><path fill="none" stroke="#418104" d="M 265 201 L 402 236" stroke-miterlimit="10" stroke-width="2"/></g></g></g></g><g transform="matrix(1,0,0,1,397.5,306.5)"><g transform="translate(0,0)"><g transform="translate(-402,-312) translate(4.5,5.5) matrix(1,0,0,1,0,0)"><g><path fill="none" stroke="#418104" d="M 402 311 L 452 346" stroke-miterlimit="10" stroke-width="2"/></g></g></g></g><g transform="matrix(1,0,0,1,325.5,306.5)"><g transform="translate(0,0)"><g transform="translate(-401,-312) translate(75.5,5.5) matrix(1,0,0,1,0,0)"><g><path fill="none" stroke="#418104" d="M 402 311 L 330 346" stroke-miterlimit="10" stroke-width="2"/></g></g></g></g><g transform="matrix(1,0,0,1,281.21067811865476,196.5)"><g transform="translate(0,0)"><g transform="translate(-285,-202) translate(3.789321881345245,5.5) matrix(1,0,0,1,0,0)"><g><path fill="none" stroke="#418104" d="M 285.71067811865476 201 L 542 236" stroke-miterlimit="10" stroke-width="2"/></g></g></g></g><g transform="translate(0,0) matrix(1,0,0,1,520,346)"><g><g transform="translate(0,0) scale(1,0.75)"><g><path fill="#6BAF21" stroke="none" d="M 0 0 L 100 0 Q 100 0 100 0 L 100 100 Q 100 100 100 100 L 0 100 Q 0 100 0 100 L 0 0 Q 0 0 0 0 Z"/><g transform="scale(1,1.3333333333333333)"><path fill="none" stroke="#418104" d="M 0 0 L 100 0 Q 100 0 100 0 L 100 75 Q 100 75 100 75 L 0 75 Q 0 75 0 75 L 0 0 Q 0 0 0 0 Z" stroke-miterlimit="10" stroke-width="2"/></g></g><g><g transform="scale(1,1.3333333333333333)"><path fill="rgba(0,0,0,0)" stroke="none" d="M 2 1.5 L 2 72.75 L 97 72.75 L 97 2.25 L 3 2.25 Z" opacity="0"/><path fill="none" stroke="#3C7626" d="M 2 1.5 M 2 1.5 L 2 5.5 M 2 5.5 M 2 7.5 L 2 11.5 M 2 11.5 M 2 13.5 L 2 17.5 M 2 17.5 M 2 19.5 L 2 23.5 M 2 23.5 M 2 25.5 L 2 29.5 M 2 29.5 M 2 31.5 L 2 35.5 M 2 35.5 M 2 37.5 L 2 41.5 M 2 41.5 M 2 43.5 L 2 47.5 M 2 47.5 M 2 49.5 L 2 53.5 M 2 53.5 M 2 55.5 L 2 59.5 M 2 59.5 M 2 61.5 L 2 65.5 M 2 65.5 M 2 67.5 L 2 71.5 M 2 71.5 M 2.75 72.75 L 6.75 72.75 M 6.75 72.75 M 8.75 72.75 L 12.75 72.75 M 12.75 72.75 M 14.75 72.75 L 18.75 72.75 M 18.75 72.75 M 20.75 72.75 L 24.75 72.75 M 24.75 72.75 M 26.75 72.75 L 30.75 72.75 M 30.75 72.75 M 32.75 72.75 L 36.75 72.75 M 36.75 72.75 M 38.75 72.75 L 42.75 72.75 M 42.75 72.75 M 44.75 72.75 L 48.75 72.75 M 48.75 72.75 M 50.75 72.75 L 54.75 72.75 M 54.75 72.75 M 56.75 72.75 L 60.75 72.75 M 60.75 72.75 M 62.75 72.75 L 66.75 72.75 M 66.75 72.75 M 68.75 72.75 L 72.75 72.75 M 72.75 72.75 M 74.75 72.75 L 78.75 72.75 M 78.75 72.75 M 80.75 72.75 L 84.75 72.75 M 84.75 72.75 M 86.75 72.75 L 90.75 72.75 M 90.75 72.75 M 92.75 72.75 L 96.75 72.75 M 96.75 72.75 M 97 71 L 97 67 M 97 67 M 97 65 L 97 61 M 97 61 M 97 59 L 97 55 M 97 55 M 97 53 L 97 49 M 97 49 M 97 47 L 97 43 M 97 43 M 97 41 L 97 37 M 97 37 M 97 35 L 97 31 M 97 31 M 97 29 L 97 25 M 97 25 M 97 23 L 97 19 M 97 19 M 97 17 L 97 13 M 97 13 M 97 11 L 97 7 M 97 7 M 97 5 L 97 2.25 L 95.75 2.25 M 95.75 2.25 M 93.75 2.25 L 89.75 2.25 M 89.75 2.25 M 87.75 2.25 L 83.75 2.25 M 83.75 2.25 M 81.75 2.25 L 77.75 2.25 M 77.75 2.25 M 75.75 2.25 L 71.75 2.25 M 71.75 2.25 M 69.75 2.25 L 65.75 2.25 M 65.75 2.25 M 63.75 2.25 L 59.75 2.25 M 59.75 2.25 M 57.75 2.25 L 53.75 2.25 M 53.75 2.25 M 51.75 2.25 L 47.75 2.25 M 47.75 2.25 M 45.75 2.25 L 41.75 2.25 M 41.75 2.25 M 39.75 2.25 L 35.75 2.25 M 35.75 2.25 M 33.75 2.25 L 29.75 2.25 M 29.75 2.25 M 27.75 2.25 L 23.75 2.25 M 23.75 2.25 M 21.75 2.25 L 17.75 2.25 M 17.75 2.25 M 15.75 2.25 L 11.75 2.25 M 11.75 2.25 M 9.75 2.25 L 5.75 2.25 M 5.75 2.25 M 3.75 2.25 L 3 2.25 Z" stroke-miterlimit="10" stroke-width="2" opacity="0"/></g></g></g></g></g><g transform="scale(1,1) matrix(1,0,0,1,522,346) translate(2,24)"><text fill="rgb(255, 255, 255)" stroke="none" font-family="Arial" font-size="24px" font-style="normal" font-weight="normal" text-decoration="none" x="37.333333015441895" y="21">li </text></g><g transform="translate(0,0) matrix(1,0,0,1,630,346)"><g><g transform="translate(0,0) scale(1,0.75)"><g><path fill="#6BAF21" stroke="none" d="M 0 0 L 100 0 Q 100 0 100 0 L 100 100 Q 100 100 100 100 L 0 100 Q 0 100 0 100 L 0 0 Q 0 0 0 0 Z"/><g transform="scale(1,1.3333333333333333)"><path fill="none" stroke="#418104" d="M 0 0 L 100 0 Q 100 0 100 0 L 100 75 Q 100 75 100 75 L 0 75 Q 0 75 0 75 L 0 0 Q 0 0 0 0 Z" stroke-miterlimit="10" stroke-width="2"/></g></g><g><g transform="scale(1,1.3333333333333333)"><path fill="rgba(0,0,0,0)" stroke="none" d="M 2 1.5 L 2 72.75 L 97 72.75 L 97 2.25 L 3 2.25 Z" opacity="0"/><path fill="none" stroke="#3C7626" d="M 2 1.5 M 2 1.5 L 2 5.5 M 2 5.5 M 2 7.5 L 2 11.5 M 2 11.5 M 2 13.5 L 2 17.5 M 2 17.5 M 2 19.5 L 2 23.5 M 2 23.5 M 2 25.5 L 2 29.5 M 2 29.5 M 2 31.5 L 2 35.5 M 2 35.5 M 2 37.5 L 2 41.5 M 2 41.5 M 2 43.5 L 2 47.5 M 2 47.5 M 2 49.5 L 2 53.5 M 2 53.5 M 2 55.5 L 2 59.5 M 2 59.5 M 2 61.5 L 2 65.5 M 2 65.5 M 2 67.5 L 2 71.5 M 2 71.5 M 2.75 72.75 L 6.75 72.75 M 6.75 72.75 M 8.75 72.75 L 12.75 72.75 M 12.75 72.75 M 14.75 72.75 L 18.75 72.75 M 18.75 72.75 M 20.75 72.75 L 24.75 72.75 M 24.75 72.75 M 26.75 72.75 L 30.75 72.75 M 30.75 72.75 M 32.75 72.75 L 36.75 72.75 M 36.75 72.75 M 38.75 72.75 L 42.75 72.75 M 42.75 72.75 M 44.75 72.75 L 48.75 72.75 M 48.75 72.75 M 50.75 72.75 L 54.75 72.75 M 54.75 72.75 M 56.75 72.75 L 60.75 72.75 M 60.75 72.75 M 62.75 72.75 L 66.75 72.75 M 66.75 72.75 M 68.75 72.75 L 72.75 72.75 M 72.75 72.75 M 74.75 72.75 L 78.75 72.75 M 78.75 72.75 M 80.75 72.75 L 84.75 72.75 M 84.75 72.75 M 86.75 72.75 L 90.75 72.75 M 90.75 72.75 M 92.75 72.75 L 96.75 72.75 M 96.75 72.75 M 97 71 L 97 67 M 97 67 M 97 65 L 97 61 M 97 61 M 97 59 L 97 55 M 97 55 M 97 53 L 97 49 M 97 49 M 97 47 L 97 43 M 97 43 M 97 41 L 97 37 M 97 37 M 97 35 L 97 31 M 97 31 M 97 29 L 97 25 M 97 25 M 97 23 L 97 19 M 97 19 M 97 17 L 97 13 M 97 13 M 97 11 L 97 7 M 97 7 M 97 5 L 97 2.25 L 95.75 2.25 M 95.75 2.25 M 93.75 2.25 L 89.75 2.25 M 89.75 2.25 M 87.75 2.25 L 83.75 2.25 M 83.75 2.25 M 81.75 2.25 L 77.75 2.25 M 77.75 2.25 M 75.75 2.25 L 71.75 2.25 M 71.75 2.25 M 69.75 2.25 L 65.75 2.25 M 65.75 2.25 M 63.75 2.25 L 59.75 2.25 M 59.75 2.25 M 57.75 2.25 L 53.75 2.25 M 53.75 2.25 M 51.75 2.25 L 47.75 2.25 M 47.75 2.25 M 45.75 2.25 L 41.75 2.25 M 41.75 2.25 M 39.75 2.25 L 35.75 2.25 M 35.75 2.25 M 33.75 2.25 L 29.75 2.25 M 29.75 2.25 M 27.75 2.25 L 23.75 2.25 M 23.75 2.25 M 21.75 2.25 L 17.75 2.25 M 17.75 2.25 M 15.75 2.25 L 11.75 2.25 M 11.75 2.25 M 9.75 2.25 L 5.75 2.25 M 5.75 2.25 M 3.75 2.25 L 3 2.25 Z" stroke-miterlimit="10" stroke-width="2" opacity="0"/></g></g></g></g></g><g transform="scale(1,1) matrix(1,0,0,1,632,346) translate(2,24)"><text fill="rgb(255, 255, 255)" stroke="none" font-family="Arial" font-size="24px" font-style="normal" font-weight="normal" text-decoration="none" x="37.333333015441895" y="21">li </text></g><g transform="translate(0,0) matrix(1,0,0,1,740,346)"><g><g transform="translate(0,0) scale(1,0.75)"><g><path fill="#6BAF21" stroke="none" d="M 0 0 L 100 0 Q 100 0 100 0 L 100 100 Q 100 100 100 100 L 0 100 Q 0 100 0 100 L 0 0 Q 0 0 0 0 Z"/><g transform="scale(1,1.3333333333333333)"><path fill="none" stroke="#418104" d="M 0 0 L 100 0 Q 100 0 100 0 L 100 75 Q 100 75 100 75 L 0 75 Q 0 75 0 75 L 0 0 Q 0 0 0 0 Z" stroke-miterlimit="10" stroke-width="2"/></g></g><g><g transform="scale(1,1.3333333333333333)"><path fill="rgba(0,0,0,0)" stroke="none" d="M 2 1.5 L 2 72.75 L 97 72.75 L 97 2.25 L 3 2.25 Z" opacity="0"/><path fill="none" stroke="#3C7626" d="M 2 1.5 M 2 1.5 L 2 5.5 M 2 5.5 M 2 7.5 L 2 11.5 M 2 11.5 M 2 13.5 L 2 17.5 M 2 17.5 M 2 19.5 L 2 23.5 M 2 23.5 M 2 25.5 L 2 29.5 M 2 29.5 M 2 31.5 L 2 35.5 M 2 35.5 M 2 37.5 L 2 41.5 M 2 41.5 M 2 43.5 L 2 47.5 M 2 47.5 M 2 49.5 L 2 53.5 M 2 53.5 M 2 55.5 L 2 59.5 M 2 59.5 M 2 61.5 L 2 65.5 M 2 65.5 M 2 67.5 L 2 71.5 M 2 71.5 M 2.75 72.75 L 6.75 72.75 M 6.75 72.75 M 8.75 72.75 L 12.75 72.75 M 12.75 72.75 M 14.75 72.75 L 18.75 72.75 M 18.75 72.75 M 20.75 72.75 L 24.75 72.75 M 24.75 72.75 M 26.75 72.75 L 30.75 72.75 M 30.75 72.75 M 32.75 72.75 L 36.75 72.75 M 36.75 72.75 M 38.75 72.75 L 42.75 72.75 M 42.75 72.75 M 44.75 72.75 L 48.75 72.75 M 48.75 72.75 M 50.75 72.75 L 54.75 72.75 M 54.75 72.75 M 56.75 72.75 L 60.75 72.75 M 60.75 72.75 M 62.75 72.75 L 66.75 72.75 M 66.75 72.75 M 68.75 72.75 L 72.75 72.75 M 72.75 72.75 M 74.75 72.75 L 78.75 72.75 M 78.75 72.75 M 80.75 72.75 L 84.75 72.75 M 84.75 72.75 M 86.75 72.75 L 90.75 72.75 M 90.75 72.75 M 92.75 72.75 L 96.75 72.75 M 96.75 72.75 M 97 71 L 97 67 M 97 67 M 97 65 L 97 61 M 97 61 M 97 59 L 97 55 M 97 55 M 97 53 L 97 49 M 97 49 M 97 47 L 97 43 M 97 43 M 97 41 L 97 37 M 97 37 M 97 35 L 97 31 M 97 31 M 97 29 L 97 25 M 97 25 M 97 23 L 97 19 M 97 19 M 97 17 L 97 13 M 97 13 M 97 11 L 97 7 M 97 7 M 97 5 L 97 2.25 L 95.75 2.25 M 95.75 2.25 M 93.75 2.25 L 89.75 2.25 M 89.75 2.25 M 87.75 2.25 L 83.75 2.25 M 83.75 2.25 M 81.75 2.25 L 77.75 2.25 M 77.75 2.25 M 75.75 2.25 L 71.75 2.25 M 71.75 2.25 M 69.75 2.25 L 65.75 2.25 M 65.75 2.25 M 63.75 2.25 L 59.75 2.25 M 59.75 2.25 M 57.75 2.25 L 53.75 2.25 M 53.75 2.25 M 51.75 2.25 L 47.75 2.25 M 47.75 2.25 M 45.75 2.25 L 41.75 2.25 M 41.75 2.25 M 39.75 2.25 L 35.75 2.25 M 35.75 2.25 M 33.75 2.25 L 29.75 2.25 M 29.75 2.25 M 27.75 2.25 L 23.75 2.25 M 23.75 2.25 M 21.75 2.25 L 17.75 2.25 M 17.75 2.25 M 15.75 2.25 L 11.75 2.25 M 11.75 2.25 M 9.75 2.25 L 5.75 2.25 M 5.75 2.25 M 3.75 2.25 L 3 2.25 Z" stroke-miterlimit="10" stroke-width="2" opacity="0"/></g></g></g></g></g><g transform="scale(1,1) matrix(1,0,0,1,742,346) translate(2,24)"><text fill="rgb(255, 255, 255)" stroke="none" font-family="Arial" font-size="24px" font-style="normal" font-weight="normal" text-decoration="none" x="37.333333015441895" y="21">li </text></g><g transform="matrix(1,0,0,1,516.7893218813452,306.5)"><g transform="translate(0,0)"><g transform="translate(-705,-148) translate(188.21067811865476,-158.5) matrix(1,0,0,1,0,0)"><g><path fill="none" stroke="#418104" d="M 521.2893218813452 311 L 570 346" stroke-miterlimit="10" stroke-width="2"/></g></g></g></g><g transform="matrix(1,0,0,1,537.5,306.5)"><g transform="translate(0,0)"><g transform="translate(-632,-239) translate(94.5,-67.5) matrix(1,0,0,1,0,0)"><g><path fill="none" stroke="#418104" d="M 542 311 L 680 346" stroke-miterlimit="10" stroke-width="2"/></g></g></g></g><g transform="matrix(1,0,0,1,558.2106781186548,306.5)"><g transform="translate(0,0)"><g transform="translate(-675,-246) translate(116.78932188134524,-60.5) matrix(1,0,0,1,0,0)"><g><path fill="none" stroke="#418104" d="M 562.7106781186548 311 L 790 346" stroke-miterlimit="10" stroke-width="2"/></g></g></g></g><g transform="scale(1,1) matrix(1,0,0,1,512,318.5) translate(2,41)"/><g transform="scale(1,1) matrix(1,0,0,1,578,380) translate(2,0)"><text fill="rgb(47, 58, 28)" stroke="none" font-family="Arial" font-size="36px" font-style="normal" font-weight="normal" text-decoration="none" x="10.958335876464844" y="33">childNodes</text></g><g transform="scale(1,1) matrix(1,0,0,1,502,421) translate(2,0)"><text fill="rgb(47, 58, 28)" stroke="none" font-family="Arial" font-size="36px" font-style="normal" font-weight="normal" text-decoration="none" x="2.991668701171875" y="33">firstChild</text></g><g transform="scale(1,1) matrix(1,0,0,1,715,421) translate(2,0)"><text fill="rgb(47, 58, 28)" stroke="none" font-family="Arial" font-size="36px" font-style="normal" font-weight="normal" text-decoration="none" x="3.9749984741210938" y="33">lastChild</text></g><g transform="scale(1,1) matrix(1,0,0,1,265,60) translate(2,20.5)"><text fill="rgb(47, 58, 28)" stroke="none" font-family="Arial" font-size="36px" font-style="normal" font-weight="normal" text-decoration="none" x="9.949996948242188" y="33">parentNode</text></g><g transform="scale(1,1) matrix(1,0,0,1,272,160) translate(2,0)"><text fill="rgb(47, 58, 28)" stroke="none" font-family="Arial" font-size="36px" font-style="normal" font-weight="normal" text-decoration="none" x="64.9749984741211" y="33">previous</text><text fill="rgb(47, 58, 28)" stroke="none" font-family="Arial" font-size="36px" font-style="normal" font-weight="normal" text-decoration="none" x="78.96666717529297" y="74">Sibling</text></g></g></svg>