<svg version="1.1" xmlns="http://www.w3.org/2000/svg" xmlns:xlink="http://www.w3.org/1999/xlink" width="450" height="250"><defs/><g transform="translate(0,0)"><g><rect fill="#FFFFFF" stroke="none" x="0" y="0" width="450" height="250"/></g><g transform="translate(0,0) matrix(1,0,0,1,0,0)"><g><g transform="translate(0,0) scale(1.7,2.3)"><g><path fill="#6BAF21" stroke="none" d="M 0 0 L 100 0 Q 100 0 100 0 L 100 100 Q 100 100 100 100 L 0 100 Q 0 100 0 100 L 0 0 Q 0 0 0 0 Z"/><g transform="scale(0.5882352941176471,0.4347826086956522)"><path fill="none" stroke="#418104" d="M 0 0 L 170 0 Q 170 0 170 0 L 170 229.99999999999997 Q 170 229.99999999999997 170 229.99999999999997 L 0 229.99999999999997 Q 0 229.99999999999997 0 229.99999999999997 L 0 0 Q 0 0 0 0 Z" stroke-miterlimit="10" stroke-width="2"/></g></g><g><g transform="scale(0.5882352941176471,0.4347826086956522)"><path fill="rgba(0,0,0,0)" stroke="none" d="M 3.4 4.6 L 3.4 223.1 L 164.9 223.1 L 164.9 6.8999999999999995 L 5.1 6.8999999999999995 Z" opacity="0"/><path fill="none" stroke="#3C7626" d="M 3.4 4.6 M 3.4 4.6 L 3.4 8.6 M 3.4 8.6 M 3.4 10.6 L 3.4 14.6 M 3.4 14.6 M 3.4 16.6 L 3.4 20.6 M 3.4 20.6 M 3.4 22.6 L 3.4 26.6 M 3.4 26.6 M 3.4 28.6 L 3.4 32.6 M 3.4 32.6 M 3.4 34.6 L 3.4 38.6 M 3.4 38.6 M 3.4 40.6 L 3.4 44.6 M 3.4 44.6 M 3.4 46.6 L 3.4 50.6 M 3.4 50.6 M 3.4 52.6 L 3.4 56.6 M 3.4 56.6 M 3.4 58.6 L 3.4 62.6 M 3.4 62.6 M 3.4 64.6 L 3.4 68.6 M 3.4 68.6 M 3.4 70.6 L 3.4 74.6 M 3.4 74.6 M 3.4 76.6 L 3.4 80.6 M 3.4 80.6 M 3.4 82.6 L 3.4 86.6 M 3.4 86.6 M 3.4 88.6 L 3.4 92.6 M 3.4 92.6 M 3.4 94.6 L 3.4 98.6 M 3.4 98.6 M 3.4 100.6 L 3.4 104.6 M 3.4 104.6 M 3.4 106.6 L 3.4 110.6 M 3.4 110.6 M 3.4 112.6 L 3.4 116.6 M 3.4 116.6 M 3.4 118.6 L 3.4 122.6 M 3.4 122.6 M 3.4 124.6 L 3.4 128.6 M 3.4 128.6 M 3.4 130.6 L 3.4 134.6 M 3.4 134.6 M 3.4 136.6 L 3.4 140.6 M 3.4 140.6 M 3.4 142.6 L 3.4 146.6 M 3.4 146.6 M 3.4 148.6 L 3.4 152.6 M 3.4 152.6 M 3.4 154.6 L 3.4 158.6 M 3.4 158.6 M 3.4 160.6 L 3.4 164.6 M 3.4 164.6 M 3.4 166.6 L 3.4 170.6 M 3.4 170.6 M 3.4 172.6 L 3.4 176.6 M 3.4 176.6 M 3.4 178.6 L 3.4 182.6 M 3.4 182.6 M 3.4 184.6 L 3.4 188.6 M 3.4 188.6 M 3.4 190.6 L 3.4 194.6 M 3.4 194.6 M 3.4 196.6 L 3.4 200.6 M 3.4 200.6 M 3.4 202.6 L 3.4 206.6 M 3.4 206.6 M 3.4 208.6 L 3.4 212.6 M 3.4 212.6 M 3.4 214.6 L 3.4 218.6 M 3.4 218.6 M 3.4 220.6 L 3.4 223.1 L 4.9 223.1 M 4.9 223.1 M 6.9 223.1 L 10.9 223.1 M 10.9 223.1 M 12.9 223.1 L 16.9 223.1 M 16.9 223.1 M 18.9 223.1 L 22.9 223.1 M 22.9 223.1 M 24.9 223.1 L 28.9 223.1 M 28.9 223.1 M 30.9 223.1 L 34.9 223.1 M 34.9 223.1 M 36.9 223.1 L 40.9 223.1 M 40.9 223.1 M 42.9 223.1 L 46.9 223.1 M 46.9 223.1 M 48.9 223.1 L 52.9 223.1 M 52.9 223.1 M 54.9 223.1 L 58.9 223.1 M 58.9 223.1 M 60.9 223.1 L 64.9 223.1 M 64.9 223.1 M 66.9 223.1 L 70.9 223.1 M 70.9 223.1 M 72.9 223.1 L 76.9 223.1 M 76.9 223.1 M 78.9 223.1 L 82.9 223.1 M 82.9 223.1 M 84.9 223.1 L 88.9 223.1 M 88.9 223.1 M 90.9 223.1 L 94.9 223.1 M 94.9 223.1 M 96.9 223.1 L 100.9 223.1 M 100.9 223.1 M 102.9 223.1 L 106.9 223.1 M 106.9 223.1 M 108.9 223.1 L 112.9 223.1 M 112.9 223.1 M 114.9 223.1 L 118.9 223.1 M 118.9 223.1 M 120.9 223.1 L 124.9 223.1 M 124.9 223.1 M 126.9 223.1 L 130.9 223.1 M 130.9 223.1 M 132.9 223.1 L 136.9 223.1 M 136.9 223.1 M 138.9 223.1 L 142.9 223.1 M 142.9 223.1 M 144.9 223.1 L 148.9 223.1 M 148.9 223.1 M 150.9 223.1 L 154.9 223.1 M 154.9 223.1 M 156.9 223.1 L 160.9 223.1 M 160.9 223.1 M 162.9 223.1 L 164.9 223.1 L 164.9 221.1 M 164.9 221.1 M 164.9 219.1 L 164.9 215.1 M 164.9 215.1 M 164.9 213.1 L 164.9 209.1 M 164.9 209.1 M 164.9 207.1 L 164.9 203.1 M 164.9 203.1 M 164.9 201.1 L 164.9 197.1 M 164.9 197.1 M 164.9 195.1 L 164.9 191.1 M 164.9 191.1 M 164.9 189.1 L 164.9 185.1 M 164.9 185.1 M 164.9 183.1 L 164.9 179.1 M 164.9 179.1 M 164.9 177.1 L 164.9 173.1 M 164.9 173.1 M 164.9 171.1 L 164.9 167.1 M 164.9 167.1 M 164.9 165.1 L 164.9 161.1 M 164.9 161.1 M 164.9 159.1 L 164.9 155.1 M 164.9 155.1 M 164.9 153.1 L 164.9 149.1 M 164.9 149.1 M 164.9 147.1 L 164.9 143.1 M 164.9 143.1 M 164.9 141.1 L 164.9 137.1 M 164.9 137.1 M 164.9 135.1 L 164.9 131.1 M 164.9 131.1 M 164.9 129.1 L 164.9 125.1 M 164.9 125.1 M 164.9 123.1 L 164.9 119.1 M 164.9 119.1 M 164.9 117.1 L 164.9 113.1 M 164.9 113.1 M 164.9 111.1 L 164.9 107.1 M 164.9 107.1 M 164.9 105.1 L 164.9 101.1 M 164.9 101.1 M 164.9 99.1 L 164.9 95.1 M 164.9 95.1 M 164.9 93.1 L 164.9 89.1 M 164.9 89.1 M 164.9 87.1 L 164.9 83.1 M 164.9 83.1 M 164.9 81.1 L 164.9 77.1 M 164.9 77.1 M 164.9 75.1 L 164.9 71.1 M 164.9 71.1 M 164.9 69.1 L 164.9 65.1 M 164.9 65.1 M 164.9 63.099999999999994 L 164.9 59.099999999999994 M 164.9 59.099999999999994 M 164.9 57.099999999999994 L 164.9 53.099999999999994 M 164.9 53.099999999999994 M 164.9 51.099999999999994 L 164.9 47.099999999999994 M 164.9 47.099999999999994 M 164.9 45.099999999999994 L 164.9 41.099999999999994 M 164.9 41.099999999999994 M 164.9 39.099999999999994 L 164.9 35.099999999999994 M 164.9 35.099999999999994 M 164.9 33.099999999999994 L 164.9 29.099999999999994 M 164.9 29.099999999999994 M 164.9 27.099999999999994 L 164.9 23.099999999999994 M 164.9 23.099999999999994 M 164.9 21.099999999999994 L 164.9 17.099999999999994 M 164.9 17.099999999999994 M 164.9 15.099999999999994 L 164.9 11.099999999999994 M 164.9 11.099999999999994 M 164.9 9.099999999999994 L 164.9 6.8999999999999995 L 163.1 6.8999999999999995 M 163.1 6.8999999999999995 M 161.1 6.8999999999999995 L 157.1 6.8999999999999995 M 157.1 6.8999999999999995 M 155.1 6.8999999999999995 L 151.1 6.8999999999999995 M 151.1 6.8999999999999995 M 149.1 6.8999999999999995 L 145.1 6.8999999999999995 M 145.1 6.8999999999999995 M 143.1 6.8999999999999995 L 139.1 6.8999999999999995 M 139.1 6.8999999999999995 M 137.1 6.8999999999999995 L 133.1 6.8999999999999995 M 133.1 6.8999999999999995 M 131.1 6.8999999999999995 L 127.1 6.8999999999999995 M 127.1 6.8999999999999995 M 125.1 6.8999999999999995 L 121.1 6.8999999999999995 M 121.1 6.8999999999999995 M 119.1 6.8999999999999995 L 115.1 6.8999999999999995 M 115.1 6.8999999999999995 M 113.1 6.8999999999999995 L 109.1 6.8999999999999995 M 109.1 6.8999999999999995 M 107.1 6.8999999999999995 L 103.1 6.8999999999999995 M 103.1 6.8999999999999995 M 101.1 6.8999999999999995 L 97.1 6.8999999999999995 M 97.1 6.8999999999999995 M 95.1 6.8999999999999995 L 91.1 6.8999999999999995 M 91.1 6.8999999999999995 M 89.1 6.8999999999999995 L 85.1 6.8999999999999995 M 85.1 6.8999999999999995 M 83.1 6.8999999999999995 L 79.1 6.8999999999999995 M 79.1 6.8999999999999995 M 77.1 6.8999999999999995 L 73.1 6.8999999999999995 M 73.1 6.8999999999999995 M 71.1 6.8999999999999995 L 67.1 6.8999999999999995 M 67.1 6.8999999999999995 M 65.1 6.8999999999999995 L 61.099999999999994 6.8999999999999995 M 61.099999999999994 6.8999999999999995 M 59.099999999999994 6.8999999999999995 L 55.099999999999994 6.8999999999999995 M 55.099999999999994 6.8999999999999995 M 53.099999999999994 6.8999999999999995 L 49.099999999999994 6.8999999999999995 M 49.099999999999994 6.8999999999999995 M 47.099999999999994 6.8999999999999995 L 43.099999999999994 6.8999999999999995 M 43.099999999999994 6.8999999999999995 M 41.099999999999994 6.8999999999999995 L 37.099999999999994 6.8999999999999995 M 37.099999999999994 6.8999999999999995 M 35.099999999999994 6.8999999999999995 L 31.099999999999994 6.8999999999999995 M 31.099999999999994 6.8999999999999995 M 29.099999999999994 6.8999999999999995 L 25.099999999999994 6.8999999999999995 M 25.099999999999994 6.8999999999999995 M 23.099999999999994 6.8999999999999995 L 19.099999999999994 6.8999999999999995 M 19.099999999999994 6.8999999999999995 M 17.099999999999994 6.8999999999999995 L 13.099999999999994 6.8999999999999995 M 13.099999999999994 6.8999999999999995 M 11.099999999999994 6.8999999999999995 L 7.099999999999994 6.8999999999999995 M 7.099999999999994 6.8999999999999995 Z" stroke-miterlimit="10" stroke-width="2" opacity="0"/></g></g></g></g></g><g transform="scale(1,1) matrix(1,0,0,1,3.399999999999998,0) translate(2,5)"><text fill="rgb(255, 255, 255)" stroke="none" font-family="Arial" font-size="12px" font-style="normal" font-weight="bold" text-decoration="none" x="36.2666679382324" y="11">web_page.html</text><text fill="rgb(255, 255, 255)" stroke="none" font-family="Arial" font-size="9px" font-style="normal" font-weight="normal" text-decoration="none" x="1.2750030517577926" y="22">&lt;script src="my_javascript.js"&gt;&lt;/script&gt;</text><text fill="#000000" stroke="none" font-family="Arial" font-size="12px" font-style="normal" font-weight="normal" text-decoration="none" x="77.93333337306974" y="35">&#160;</text><text fill="#000000" stroke="none" font-family="Arial" font-size="12px" font-style="normal" font-weight="normal" text-decoration="none" x="77.93333337306974" y="49">&#160;</text><text fill="#000000" stroke="none" font-family="Arial" font-size="12px" font-style="normal" font-weight="normal" text-decoration="none" x="77.93333337306974" y="63">&#160;</text><text fill="#000000" stroke="none" font-family="Arial" font-size="12px" font-style="normal" font-weight="normal" text-decoration="none" x="77.93333337306974" y="77">&#160;</text><text fill="#000000" stroke="none" font-family="Arial" font-size="12px" font-style="normal" font-weight="normal" text-decoration="none" x="77.93333337306974" y="91">&#160;</text><text fill="#000000" stroke="none" font-family="Arial" font-size="12px" font-style="normal" font-weight="normal" text-decoration="none" x="77.93333337306974" y="105">&#160;</text><text fill="#000000" stroke="none" font-family="Arial" font-size="12px" font-style="normal" font-weight="normal" text-decoration="none" x="77.93333337306974" y="119">&#160;</text><text fill="#000000" stroke="none" font-family="Arial" font-size="12px" font-style="normal" font-weight="normal" text-decoration="none" x="77.93333337306974" y="133">&#160;</text><text fill="#000000" stroke="none" font-family="Arial" font-size="12px" font-style="normal" font-weight="normal" text-decoration="none" x="77.93333337306974" y="147">&#160;</text><text fill="#000000" stroke="none" font-family="Arial" font-size="12px" font-style="normal" font-weight="normal" text-decoration="none" x="77.93333337306974" y="161">&#160;</text><text fill="#000000" stroke="none" font-family="Arial" font-size="12px" font-style="normal" font-weight="normal" text-decoration="none" x="77.93333337306974" y="175">&#160;</text><text fill="#000000" stroke="none" font-family="Arial" font-size="12px" font-style="normal" font-weight="normal" text-decoration="none" x="77.93333337306974" y="189">&#160;</text><text fill="#000000" stroke="none" font-family="Arial" font-size="12px" font-style="normal" font-weight="normal" text-decoration="none" x="77.93333337306974" y="203">&#160;</text><text fill="#000000" stroke="none" font-family="Arial" font-size="12px" font-style="normal" font-weight="normal" text-decoration="none" x="77.93333337306974" y="217">&#160;</text></g><g transform="translate(0,0) matrix(1,0,0,1,30,50)"><g><g transform="translate(0,0) scale(1.1,0.3)"><g><path fill="#e69138" stroke="none" d="M 0 0 L 100 0 Q 100 0 100 0 L 100 100 Q 100 100 100 100 L 0 100 Q 0 100 0 100 L 0 0 Q 0 0 0 0 Z"/><g transform="scale(0.9090909090909091,3.3333333333333335)"><path fill="none" stroke="#418104" d="M 0 0 L 110.00000000000001 0 Q 110.00000000000001 0 110.00000000000001 0 L 110.00000000000001 30 Q 110.00000000000001 30 110.00000000000001 30 L 0 30 Q 0 30 0 30 L 0 0 Q 0 0 0 0 Z" stroke-miterlimit="10" stroke-width="2"/></g></g><g><g transform="scale(0.9090909090909091,3.3333333333333335)"><path fill="rgba(0,0,0,0)" stroke="none" d="M 2.2 0.6 L 2.2 29.099999999999998 L 106.7 29.099999999999998 L 106.7 0.8999999999999999 L 3.3000000000000003 0.8999999999999999 Z" opacity="0"/><path fill="none" stroke="#3C7626" d="M 2.2 0.6 M 2.2 0.6 L 2.2 4.6 M 2.2 4.6 M 2.2 6.6 L 2.2 10.6 M 2.2 10.6 M 2.2 12.6 L 2.2 16.6 M 2.2 16.6 M 2.2 18.6 L 2.2 22.6 M 2.2 22.6 M 2.2 24.6 L 2.2 28.6 M 2.2 28.6 M 3.7000000000000037 29.099999999999998 L 7.700000000000004 29.099999999999998 M 7.700000000000004 29.099999999999998 M 9.700000000000003 29.099999999999998 L 13.700000000000003 29.099999999999998 M 13.700000000000003 29.099999999999998 M 15.700000000000003 29.099999999999998 L 19.700000000000003 29.099999999999998 M 19.700000000000003 29.099999999999998 M 21.700000000000003 29.099999999999998 L 25.700000000000003 29.099999999999998 M 25.700000000000003 29.099999999999998 M 27.700000000000003 29.099999999999998 L 31.700000000000003 29.099999999999998 M 31.700000000000003 29.099999999999998 M 33.7 29.099999999999998 L 37.7 29.099999999999998 M 37.7 29.099999999999998 M 39.7 29.099999999999998 L 43.7 29.099999999999998 M 43.7 29.099999999999998 M 45.7 29.099999999999998 L 49.7 29.099999999999998 M 49.7 29.099999999999998 M 51.7 29.099999999999998 L 55.7 29.099999999999998 M 55.7 29.099999999999998 M 57.7 29.099999999999998 L 61.7 29.099999999999998 M 61.7 29.099999999999998 M 63.7 29.099999999999998 L 67.7 29.099999999999998 M 67.7 29.099999999999998 M 69.7 29.099999999999998 L 73.7 29.099999999999998 M 73.7 29.099999999999998 M 75.7 29.099999999999998 L 79.7 29.099999999999998 M 79.7 29.099999999999998 M 81.7 29.099999999999998 L 85.7 29.099999999999998 M 85.7 29.099999999999998 M 87.7 29.099999999999998 L 91.7 29.099999999999998 M 91.7 29.099999999999998 M 93.7 29.099999999999998 L 97.7 29.099999999999998 M 97.7 29.099999999999998 M 99.7 29.099999999999998 L 103.7 29.099999999999998 M 103.7 29.099999999999998 M 105.7 29.099999999999998 L 106.7 29.099999999999998 L 106.7 26.099999999999998 M 106.7 26.099999999999998 M 106.7 24.099999999999998 L 106.7 20.099999999999998 M 106.7 20.099999999999998 M 106.7 18.099999999999998 L 106.7 14.099999999999998 M 106.7 14.099999999999998 M 106.7 12.099999999999998 L 106.7 8.099999999999998 M 106.7 8.099999999999998 M 106.7 6.099999999999998 L 106.7 2.099999999999998 M 106.7 2.099999999999998 M 105.9 0.8999999999999999 L 101.9 0.8999999999999999 M 101.9 0.8999999999999999 M 99.9 0.8999999999999999 L 95.9 0.8999999999999999 M 95.9 0.8999999999999999 M 93.9 0.8999999999999999 L 89.9 0.8999999999999999 M 89.9 0.8999999999999999 M 87.9 0.8999999999999999 L 83.9 0.8999999999999999 M 83.9 0.8999999999999999 M 81.9 0.8999999999999999 L 77.9 0.8999999999999999 M 77.9 0.8999999999999999 M 75.9 0.8999999999999999 L 71.9 0.8999999999999999 M 71.9 0.8999999999999999 M 69.9 0.8999999999999999 L 65.9 0.8999999999999999 M 65.9 0.8999999999999999 M 63.900000000000006 0.8999999999999999 L 59.900000000000006 0.8999999999999999 M 59.900000000000006 0.8999999999999999 M 57.900000000000006 0.8999999999999999 L 53.900000000000006 0.8999999999999999 M 53.900000000000006 0.8999999999999999 M 51.900000000000006 0.8999999999999999 L 47.900000000000006 0.8999999999999999 M 47.900000000000006 0.8999999999999999 M 45.900000000000006 0.8999999999999999 L 41.900000000000006 0.8999999999999999 M 41.900000000000006 0.8999999999999999 M 39.900000000000006 0.8999999999999999 L 35.900000000000006 0.8999999999999999 M 35.900000000000006 0.8999999999999999 M 33.900000000000006 0.8999999999999999 L 29.900000000000006 0.8999999999999999 M 29.900000000000006 0.8999999999999999 M 27.900000000000006 0.8999999999999999 L 23.900000000000006 0.8999999999999999 M 23.900000000000006 0.8999999999999999 M 21.900000000000006 0.8999999999999999 L 17.900000000000006 0.8999999999999999 M 17.900000000000006 0.8999999999999999 M 15.900000000000006 0.8999999999999999 L 11.900000000000006 0.8999999999999999 M 11.900000000000006 0.8999999999999999 M 9.900000000000006 0.8999999999999999 L 5.900000000000006 0.8999999999999999 M 5.900000000000006 0.8999999999999999 M 3.9000000000000057 0.8999999999999999 L 3.3000000000000003 0.8999999999999999 Z" stroke-miterlimit="10" stroke-width="2" opacity="0"/></g></g></g></g></g><g transform="scale(1,1) matrix(1,0,0,1,32.2,50) translate(2,8)"><text fill="rgb(255, 255, 255)" stroke="none" font-family="Arial" font-size="12px" font-style="normal" font-weight="normal" text-decoration="none" x="30.3666675567627" y="11">id="el1"</text></g><g transform="translate(0,0) matrix(1,0,0,1,210,0)"><g><g transform="translate(0,0) scale(2.2,2.3)"><g><path fill="rgba(255,255,255,0.008)" stroke="none" d="M 0 0 L 100 0 Q 100 0 100 0 L 100 100 Q 100 100 100 100 L 0 100 Q 0 100 0 100 L 0 0 Q 0 0 0 0 Z"/><g transform="scale(0.45454545454545453,0.4347826086956522)"><path fill="none" stroke="#418104" d="M 0 0 L 220.00000000000003 0 Q 220.00000000000003 0 220.00000000000003 0 L 220.00000000000003 229.99999999999997 Q 220.00000000000003 229.99999999999997 220.00000000000003 229.99999999999997 L 0 229.99999999999997 Q 0 229.99999999999997 0 229.99999999999997 L 0 0 Q 0 0 0 0 Z" stroke-miterlimit="10" stroke-width="2"/></g></g><g><g transform="scale(0.45454545454545453,0.4347826086956522)"><path fill="rgba(0,0,0,0)" stroke="none" d="M 4.4 4.6 L 4.4 223.1 L 213.4 223.1 L 213.4 6.8999999999999995 L 6.6000000000000005 6.8999999999999995 Z" opacity="0"/><path fill="none" stroke="#3C7626" d="M 4.4 4.6 M 4.4 4.6 L 4.4 8.6 M 4.4 8.6 M 4.4 10.6 L 4.4 14.6 M 4.4 14.6 M 4.4 16.6 L 4.4 20.6 M 4.4 20.6 M 4.4 22.6 L 4.4 26.6 M 4.4 26.6 M 4.4 28.6 L 4.4 32.6 M 4.4 32.6 M 4.4 34.6 L 4.4 38.6 M 4.4 38.6 M 4.4 40.6 L 4.4 44.6 M 4.4 44.6 M 4.4 46.6 L 4.4 50.6 M 4.4 50.6 M 4.4 52.6 L 4.4 56.6 M 4.4 56.6 M 4.4 58.6 L 4.4 62.6 M 4.4 62.6 M 4.4 64.6 L 4.4 68.6 M 4.4 68.6 M 4.4 70.6 L 4.4 74.6 M 4.4 74.6 M 4.4 76.6 L 4.4 80.6 M 4.4 80.6 M 4.4 82.6 L 4.4 86.6 M 4.4 86.6 M 4.4 88.6 L 4.4 92.6 M 4.4 92.6 M 4.4 94.6 L 4.4 98.6 M 4.4 98.6 M 4.4 100.6 L 4.4 104.6 M 4.4 104.6 M 4.4 106.6 L 4.4 110.6 M 4.4 110.6 M 4.4 112.6 L 4.4 116.6 M 4.4 116.6 M 4.4 118.6 L 4.4 122.6 M 4.4 122.6 M 4.4 124.6 L 4.4 128.6 M 4.4 128.6 M 4.4 130.6 L 4.4 134.6 M 4.4 134.6 M 4.4 136.6 L 4.4 140.6 M 4.4 140.6 M 4.4 142.6 L 4.4 146.6 M 4.4 146.6 M 4.4 148.6 L 4.4 152.6 M 4.4 152.6 M 4.4 154.6 L 4.4 158.6 M 4.4 158.6 M 4.4 160.6 L 4.4 164.6 M 4.4 164.6 M 4.4 166.6 L 4.4 170.6 M 4.4 170.6 M 4.4 172.6 L 4.4 176.6 M 4.4 176.6 M 4.4 178.6 L 4.4 182.6 M 4.4 182.6 M 4.4 184.6 L 4.4 188.6 M 4.4 188.6 M 4.4 190.6 L 4.4 194.6 M 4.4 194.6 M 4.4 196.6 L 4.4 200.6 M 4.4 200.6 M 4.4 202.6 L 4.4 206.6 M 4.4 206.6 M 4.4 208.6 L 4.4 212.6 M 4.4 212.6 M 4.4 214.6 L 4.4 218.6 M 4.4 218.6 M 4.4 220.6 L 4.4 223.1 L 5.9 223.1 M 5.9 223.1 M 7.9 223.1 L 11.9 223.1 M 11.9 223.1 M 13.9 223.1 L 17.9 223.1 M 17.9 223.1 M 19.9 223.1 L 23.9 223.1 M 23.9 223.1 M 25.9 223.1 L 29.9 223.1 M 29.9 223.1 M 31.9 223.1 L 35.9 223.1 M 35.9 223.1 M 37.9 223.1 L 41.9 223.1 M 41.9 223.1 M 43.9 223.1 L 47.9 223.1 M 47.9 223.1 M 49.9 223.1 L 53.9 223.1 M 53.9 223.1 M 55.9 223.1 L 59.9 223.1 M 59.9 223.1 M 61.9 223.1 L 65.9 223.1 M 65.9 223.1 M 67.9 223.1 L 71.9 223.1 M 71.9 223.1 M 73.9 223.1 L 77.9 223.1 M 77.9 223.1 M 79.9 223.1 L 83.9 223.1 M 83.9 223.1 M 85.9 223.1 L 89.9 223.1 M 89.9 223.1 M 91.9 223.1 L 95.9 223.1 M 95.9 223.1 M 97.9 223.1 L 101.9 223.1 M 101.9 223.1 M 103.9 223.1 L 107.9 223.1 M 107.9 223.1 M 109.9 223.1 L 113.9 223.1 M 113.9 223.1 M 115.9 223.1 L 119.9 223.1 M 119.9 223.1 M 121.9 223.1 L 125.9 223.1 M 125.9 223.1 M 127.9 223.1 L 131.9 223.1 M 131.9 223.1 M 133.9 223.1 L 137.9 223.1 M 137.9 223.1 M 139.9 223.1 L 143.9 223.1 M 143.9 223.1 M 145.9 223.1 L 149.9 223.1 M 149.9 223.1 M 151.9 223.1 L 155.9 223.1 M 155.9 223.1 M 157.9 223.1 L 161.9 223.1 M 161.9 223.1 M 163.9 223.1 L 167.9 223.1 M 167.9 223.1 M 169.9 223.1 L 173.9 223.1 M 173.9 223.1 M 175.9 223.1 L 179.9 223.1 M 179.9 223.1 M 181.9 223.1 L 185.9 223.1 M 185.9 223.1 M 187.9 223.1 L 191.9 223.1 M 191.9 223.1 M 193.9 223.1 L 197.9 223.1 M 197.9 223.1 M 199.9 223.1 L 203.9 223.1 M 203.9 223.1 M 205.9 223.1 L 209.9 223.1 M 209.9 223.1 M 211.9 223.1 L 213.4 223.1 L 213.4 220.6 M 213.4 220.6 M 213.4 218.6 L 213.4 214.6 M 213.4 214.6 M 213.4 212.6 L 213.4 208.6 M 213.4 208.6 M 213.4 206.6 L 213.4 202.6 M 213.4 202.6 M 213.4 200.6 L 213.4 196.6 M 213.4 196.6 M 213.4 194.6 L 213.4 190.6 M 213.4 190.6 M 213.4 188.6 L 213.4 184.6 M 213.4 184.6 M 213.4 182.6 L 213.4 178.6 M 213.4 178.6 M 213.4 176.6 L 213.4 172.6 M 213.4 172.6 M 213.4 170.6 L 213.4 166.6 M 213.4 166.6 M 213.4 164.6 L 213.4 160.6 M 213.4 160.6 M 213.4 158.6 L 213.4 154.6 M 213.4 154.6 M 213.4 152.6 L 213.4 148.6 M 213.4 148.6 M 213.4 146.6 L 213.4 142.6 M 213.4 142.6 M 213.4 140.6 L 213.4 136.6 M 213.4 136.6 M 213.4 134.6 L 213.4 130.6 M 213.4 130.6 M 213.4 128.6 L 213.4 124.6 M 213.4 124.6 M 213.4 122.6 L 213.4 118.6 M 213.4 118.6 M 213.4 116.6 L 213.4 112.6 M 213.4 112.6 M 213.4 110.6 L 213.4 106.6 M 213.4 106.6 M 213.4 104.6 L 213.4 100.6 M 213.4 100.6 M 213.4 98.6 L 213.4 94.6 M 213.4 94.6 M 213.4 92.6 L 213.4 88.6 M 213.4 88.6 M 213.4 86.6 L 213.4 82.6 M 213.4 82.6 M 213.4 80.6 L 213.4 76.6 M 213.4 76.6 M 213.4 74.6 L 213.4 70.6 M 213.4 70.6 M 213.4 68.6 L 213.4 64.6 M 213.4 64.6 M 213.4 62.599999999999994 L 213.4 58.599999999999994 M 213.4 58.599999999999994 M 213.4 56.599999999999994 L 213.4 52.599999999999994 M 213.4 52.599999999999994 M 213.4 50.599999999999994 L 213.4 46.599999999999994 M 213.4 46.599999999999994 M 213.4 44.599999999999994 L 213.4 40.599999999999994 M 213.4 40.599999999999994 M 213.4 38.599999999999994 L 213.4 34.599999999999994 M 213.4 34.599999999999994 M 213.4 32.599999999999994 L 213.4 28.599999999999994 M 213.4 28.599999999999994 M 213.4 26.599999999999994 L 213.4 22.599999999999994 M 213.4 22.599999999999994 M 213.4 20.599999999999994 L 213.4 16.599999999999994 M 213.4 16.599999999999994 M 213.4 14.599999999999994 L 213.4 10.599999999999994 M 213.4 10.599999999999994 M 213.4 8.599999999999994 L 213.4 6.8999999999999995 L 211.1 6.8999999999999995 M 211.1 6.8999999999999995 M 209.1 6.8999999999999995 L 205.1 6.8999999999999995 M 205.1 6.8999999999999995 M 203.1 6.8999999999999995 L 199.1 6.8999999999999995 M 199.1 6.8999999999999995 M 197.1 6.8999999999999995 L 193.1 6.8999999999999995 M 193.1 6.8999999999999995 M 191.1 6.8999999999999995 L 187.1 6.8999999999999995 M 187.1 6.8999999999999995 M 185.1 6.8999999999999995 L 181.1 6.8999999999999995 M 181.1 6.8999999999999995 M 179.1 6.8999999999999995 L 175.1 6.8999999999999995 M 175.1 6.8999999999999995 M 173.1 6.8999999999999995 L 169.1 6.8999999999999995 M 169.1 6.8999999999999995 M 167.1 6.8999999999999995 L 163.1 6.8999999999999995 M 163.1 6.8999999999999995 M 161.1 6.8999999999999995 L 157.1 6.8999999999999995 M 157.1 6.8999999999999995 M 155.1 6.8999999999999995 L 151.1 6.8999999999999995 M 151.1 6.8999999999999995 M 149.1 6.8999999999999995 L 145.1 6.8999999999999995 M 145.1 6.8999999999999995 M 143.1 6.8999999999999995 L 139.1 6.8999999999999995 M 139.1 6.8999999999999995 M 137.1 6.8999999999999995 L 133.1 6.8999999999999995 M 133.1 6.8999999999999995 M 131.1 6.8999999999999995 L 127.1 6.8999999999999995 M 127.1 6.8999999999999995 M 125.1 6.8999999999999995 L 121.1 6.8999999999999995 M 121.1 6.8999999999999995 M 119.1 6.8999999999999995 L 115.1 6.8999999999999995 M 115.1 6.8999999999999995 M 113.1 6.8999999999999995 L 109.1 6.8999999999999995 M 109.1 6.8999999999999995 M 107.1 6.8999999999999995 L 103.1 6.8999999999999995 M 103.1 6.8999999999999995 M 101.1 6.8999999999999995 L 97.1 6.8999999999999995 M 97.1 6.8999999999999995 M 95.1 6.8999999999999995 L 91.1 6.8999999999999995 M 91.1 6.8999999999999995 M 89.1 6.8999999999999995 L 85.1 6.8999999999999995 M 85.1 6.8999999999999995 M 83.1 6.8999999999999995 L 79.1 6.8999999999999995 M 79.1 6.8999999999999995 M 77.1 6.8999999999999995 L 73.1 6.8999999999999995 M 73.1 6.8999999999999995 M 71.1 6.8999999999999995 L 67.1 6.8999999999999995 M 67.1 6.8999999999999995 M 65.1 6.8999999999999995 L 61.099999999999994 6.8999999999999995 M 61.099999999999994 6.8999999999999995 M 59.099999999999994 6.8999999999999995 L 55.099999999999994 6.8999999999999995 M 55.099999999999994 6.8999999999999995 M 53.099999999999994 6.8999999999999995 L 49.099999999999994 6.8999999999999995 M 49.099999999999994 6.8999999999999995 M 47.099999999999994 6.8999999999999995 L 43.099999999999994 6.8999999999999995 M 43.099999999999994 6.8999999999999995 M 41.099999999999994 6.8999999999999995 L 37.099999999999994 6.8999999999999995 M 37.099999999999994 6.8999999999999995 M 35.099999999999994 6.8999999999999995 L 31.099999999999994 6.8999999999999995 M 31.099999999999994 6.8999999999999995 M 29.099999999999994 6.8999999999999995 L 25.099999999999994 6.8999999999999995 M 25.099999999999994 6.8999999999999995 M 23.099999999999994 6.8999999999999995 L 19.099999999999994 6.8999999999999995 M 19.099999999999994 6.8999999999999995 M 17.099999999999994 6.8999999999999995 L 13.099999999999994 6.8999999999999995 M 13.099999999999994 6.8999999999999995 M 11.099999999999994 6.8999999999999995 L 7.099999999999994 6.8999999999999995 M 7.099999999999994 6.8999999999999995 Z" stroke-miterlimit="10" stroke-width="2" opacity="0"/></g></g></g></g></g><g transform="scale(1,1) matrix(1,0,0,1,214.4,0) translate(2,9)"><text fill="rgb(0, 0, 0)" stroke="none" font-family="Arial" font-size="12px" font-style="normal" font-weight="bold" text-decoration="none" x="56.933332061767544" y="11">my_javascript.js</text><text fill="rgb(255, 255, 255)" stroke="none" font-family="Arial" font-size="12px" font-style="normal" font-weight="normal" text-decoration="none" x="0" y="25">&#160;</text><text fill="rgb(230, 145, 56)" stroke="none" font-family="Arial" font-size="12px" font-style="normal" font-weight="normal" text-decoration="none" x="0" y="39">function something_el1 {...}</text><text fill="rgb(204, 0, 0)" stroke="none" font-family="Arial" font-size="12px" font-style="normal" font-weight="normal" text-decoration="none" x="0" y="53">function something_el2 {...}</text><text fill="rgb(60, 120, 216)" stroke="none" font-family="Arial" font-size="12px" font-style="normal" font-weight="normal" text-decoration="none" x="0" y="67">function something_el3 {...}</text><text fill="rgb(255, 255, 255)" stroke="none" font-family="Arial" font-size="12px" font-style="normal" font-weight="normal" text-decoration="none" x="0" y="81">&#160;</text><text fill="#000000" stroke="none" font-family="Arial" font-size="12px" font-style="normal" font-weight="normal" text-decoration="none" x="0" y="95">function collect_handlers {</text><text fill="rgb(255, 255, 255)" stroke="none" font-family="Arial" font-size="12px" font-style="normal" font-weight="normal" text-decoration="none" x="0" y="109">&#160;&#160;&#160;&#160;&#160;&#160;&#160;&#160;&#160; </text><text fill="rgb(230, 145, 56)" stroke="none" font-family="Arial" font-size="12px" font-style="normal" font-weight="normal" text-decoration="none" x="33.33333206176758" y="109">...el1.onclick = something_el1</text><text fill="rgb(255, 255, 255)" stroke="none" font-family="Arial" font-size="12px" font-style="normal" font-weight="normal" text-decoration="none" x="0" y="123">&#160;&#160;&#160;&#160;&#160;&#160;&#160;&#160;&#160;</text><text fill="rgb(204, 0, 0)" stroke="none" font-family="Arial" font-size="12px" font-style="normal" font-weight="normal" text-decoration="none" x="30" y="123"> ...el2.onclick = something_el2</text><text fill="rgb(255, 255, 255)" stroke="none" font-family="Arial" font-size="12px" font-style="normal" font-weight="normal" text-decoration="none" x="0" y="137">&#160;&#160;&#160;&#160;&#160;&#160;&#160;&#160;&#160; </text><text fill="rgb(60, 120, 216)" stroke="none" font-family="Arial" font-size="12px" font-style="normal" font-weight="normal" text-decoration="none" x="33.33333206176758" y="137">...el3.onclick = something_el3</text><text fill="rgb(0, 0, 0)" stroke="none" font-family="Arial" font-size="12px" font-style="normal" font-weight="normal" text-decoration="none" x="0" y="151">}&#160;</text><text fill="rgb(255, 255, 255)" stroke="none" font-family="Arial" font-size="12px" font-style="normal" font-weight="normal" text-decoration="none" x="7.333333492279053" y="151">&#160;&#160;&#160;&#160;&#160;&#160;&#160;&#160;&#160;&#160;</text><text fill="rgb(255, 255, 255)" stroke="none" font-family="Arial" font-size="12px" font-style="normal" font-weight="normal" text-decoration="none" x="0" y="165">&#160;&#160;&#160;&#160;&#160;&#160;&#160;&#160;&#160;&#160;&#160;&#160;&#160;&#160;&#160;&#160;&#160;&#160;&#160;&#160;&#160;&#160;&#160;&#160;&#160;&#160;&#160;&#160;&#160;&#160; </text><text fill="#000000" stroke="none" font-family="Arial" font-size="12px" font-style="normal" font-weight="normal" text-decoration="none" x="0" y="179">window.onload = collect_handlers;</text><text fill="#000000" stroke="none" font-family="Arial" font-size="12px" font-style="normal" font-weight="normal" text-decoration="none" x="0" y="193">&#160;</text><text fill="#000000" stroke="none" font-family="Arial" font-size="12px" font-style="normal" font-weight="normal" text-decoration="none" x="0" y="207">&#160;</text></g><g transform="translate(0,0) matrix(1,0,0,1,30,100)"><g><g transform="translate(0,0) scale(1.1,0.3)"><g><path fill="#cc0000" stroke="none" d="M 0 0 L 100 0 Q 100 0 100 0 L 100 100 Q 100 100 100 100 L 0 100 Q 0 100 0 100 L 0 0 Q 0 0 0 0 Z"/><g transform="scale(0.9090909090909091,3.3333333333333335)"><path fill="none" stroke="#418104" d="M 0 0 L 110.00000000000001 0 Q 110.00000000000001 0 110.00000000000001 0 L 110.00000000000001 30 Q 110.00000000000001 30 110.00000000000001 30 L 0 30 Q 0 30 0 30 L 0 0 Q 0 0 0 0 Z" stroke-miterlimit="10" stroke-width="2"/></g></g><g><g transform="scale(0.9090909090909091,3.3333333333333335)"><path fill="rgba(0,0,0,0)" stroke="none" d="M 2.2 0.6 L 2.2 29.099999999999998 L 106.7 29.099999999999998 L 106.7 0.8999999999999999 L 3.3000000000000003 0.8999999999999999 Z" opacity="0"/><path fill="none" stroke="#3C7626" d="M 2.2 0.6 M 2.2 0.6 L 2.2 4.6 M 2.2 4.6 M 2.2 6.6 L 2.2 10.6 M 2.2 10.6 M 2.2 12.6 L 2.2 16.6 M 2.2 16.6 M 2.2 18.6 L 2.2 22.6 M 2.2 22.6 M 2.2 24.6 L 2.2 28.6 M 2.2 28.6 M 3.7000000000000037 29.099999999999998 L 7.700000000000004 29.099999999999998 M 7.700000000000004 29.099999999999998 M 9.700000000000003 29.099999999999998 L 13.700000000000003 29.099999999999998 M 13.700000000000003 29.099999999999998 M 15.700000000000003 29.099999999999998 L 19.700000000000003 29.099999999999998 M 19.700000000000003 29.099999999999998 M 21.700000000000003 29.099999999999998 L 25.700000000000003 29.099999999999998 M 25.700000000000003 29.099999999999998 M 27.700000000000003 29.099999999999998 L 31.700000000000003 29.099999999999998 M 31.700000000000003 29.099999999999998 M 33.7 29.099999999999998 L 37.7 29.099999999999998 M 37.7 29.099999999999998 M 39.7 29.099999999999998 L 43.7 29.099999999999998 M 43.7 29.099999999999998 M 45.7 29.099999999999998 L 49.7 29.099999999999998 M 49.7 29.099999999999998 M 51.7 29.099999999999998 L 55.7 29.099999999999998 M 55.7 29.099999999999998 M 57.7 29.099999999999998 L 61.7 29.099999999999998 M 61.7 29.099999999999998 M 63.7 29.099999999999998 L 67.7 29.099999999999998 M 67.7 29.099999999999998 M 69.7 29.099999999999998 L 73.7 29.099999999999998 M 73.7 29.099999999999998 M 75.7 29.099999999999998 L 79.7 29.099999999999998 M 79.7 29.099999999999998 M 81.7 29.099999999999998 L 85.7 29.099999999999998 M 85.7 29.099999999999998 M 87.7 29.099999999999998 L 91.7 29.099999999999998 M 91.7 29.099999999999998 M 93.7 29.099999999999998 L 97.7 29.099999999999998 M 97.7 29.099999999999998 M 99.7 29.099999999999998 L 103.7 29.099999999999998 M 103.7 29.099999999999998 M 105.7 29.099999999999998 L 106.7 29.099999999999998 L 106.7 26.099999999999998 M 106.7 26.099999999999998 M 106.7 24.099999999999998 L 106.7 20.099999999999998 M 106.7 20.099999999999998 M 106.7 18.099999999999998 L 106.7 14.099999999999998 M 106.7 14.099999999999998 M 106.7 12.099999999999998 L 106.7 8.099999999999998 M 106.7 8.099999999999998 M 106.7 6.099999999999998 L 106.7 2.099999999999998 M 106.7 2.099999999999998 M 105.9 0.8999999999999999 L 101.9 0.8999999999999999 M 101.9 0.8999999999999999 M 99.9 0.8999999999999999 L 95.9 0.8999999999999999 M 95.9 0.8999999999999999 M 93.9 0.8999999999999999 L 89.9 0.8999999999999999 M 89.9 0.8999999999999999 M 87.9 0.8999999999999999 L 83.9 0.8999999999999999 M 83.9 0.8999999999999999 M 81.9 0.8999999999999999 L 77.9 0.8999999999999999 M 77.9 0.8999999999999999 M 75.9 0.8999999999999999 L 71.9 0.8999999999999999 M 71.9 0.8999999999999999 M 69.9 0.8999999999999999 L 65.9 0.8999999999999999 M 65.9 0.8999999999999999 M 63.900000000000006 0.8999999999999999 L 59.900000000000006 0.8999999999999999 M 59.900000000000006 0.8999999999999999 M 57.900000000000006 0.8999999999999999 L 53.900000000000006 0.8999999999999999 M 53.900000000000006 0.8999999999999999 M 51.900000000000006 0.8999999999999999 L 47.900000000000006 0.8999999999999999 M 47.900000000000006 0.8999999999999999 M 45.900000000000006 0.8999999999999999 L 41.900000000000006 0.8999999999999999 M 41.900000000000006 0.8999999999999999 M 39.900000000000006 0.8999999999999999 L 35.900000000000006 0.8999999999999999 M 35.900000000000006 0.8999999999999999 M 33.900000000000006 0.8999999999999999 L 29.900000000000006 0.8999999999999999 M 29.900000000000006 0.8999999999999999 M 27.900000000000006 0.8999999999999999 L 23.900000000000006 0.8999999999999999 M 23.900000000000006 0.8999999999999999 M 21.900000000000006 0.8999999999999999 L 17.900000000000006 0.8999999999999999 M 17.900000000000006 0.8999999999999999 M 15.900000000000006 0.8999999999999999 L 11.900000000000006 0.8999999999999999 M 11.900000000000006 0.8999999999999999 M 9.900000000000006 0.8999999999999999 L 5.900000000000006 0.8999999999999999 M 5.900000000000006 0.8999999999999999 M 3.9000000000000057 0.8999999999999999 L 3.3000000000000003 0.8999999999999999 Z" stroke-miterlimit="10" stroke-width="2" opacity="0"/></g></g></g></g></g><g transform="scale(1,1) matrix(1,0,0,1,32.2,100) translate(2,8)"><text fill="rgb(255, 255, 255)" stroke="none" font-family="Arial" font-size="12px" font-style="normal" font-weight="normal" text-decoration="none" x="30.3666675567627" y="11">id="el2"</text></g><g transform="translate(0,0) matrix(1,0,0,1,30,155)"><g><g transform="translate(0,0) scale(1.1,0.3)"><g><path fill="#3c78d8" stroke="none" d="M 0 0 L 100 0 Q 100 0 100 0 L 100 100 Q 100 100 100 100 L 0 100 Q 0 100 0 100 L 0 0 Q 0 0 0 0 Z"/><g transform="scale(0.9090909090909091,3.3333333333333335)"><path fill="none" stroke="#418104" d="M 0 0 L 110.00000000000001 0 Q 110.00000000000001 0 110.00000000000001 0 L 110.00000000000001 30 Q 110.00000000000001 30 110.00000000000001 30 L 0 30 Q 0 30 0 30 L 0 0 Q 0 0 0 0 Z" stroke-miterlimit="10" stroke-width="2"/></g></g><g><g transform="scale(0.9090909090909091,3.3333333333333335)"><path fill="rgba(0,0,0,0)" stroke="none" d="M 2.2 0.6 L 2.2 29.099999999999998 L 106.7 29.099999999999998 L 106.7 0.8999999999999999 L 3.3000000000000003 0.8999999999999999 Z" opacity="0"/><path fill="none" stroke="#3C7626" d="M 2.2 0.6 M 2.2 0.6 L 2.2 4.6 M 2.2 4.6 M 2.2 6.6 L 2.2 10.6 M 2.2 10.6 M 2.2 12.6 L 2.2 16.6 M 2.2 16.6 M 2.2 18.6 L 2.2 22.6 M 2.2 22.6 M 2.2 24.6 L 2.2 28.6 M 2.2 28.6 M 3.7000000000000037 29.099999999999998 L 7.700000000000004 29.099999999999998 M 7.700000000000004 29.099999999999998 M 9.700000000000003 29.099999999999998 L 13.700000000000003 29.099999999999998 M 13.700000000000003 29.099999999999998 M 15.700000000000003 29.099999999999998 L 19.700000000000003 29.099999999999998 M 19.700000000000003 29.099999999999998 M 21.700000000000003 29.099999999999998 L 25.700000000000003 29.099999999999998 M 25.700000000000003 29.099999999999998 M 27.700000000000003 29.099999999999998 L 31.700000000000003 29.099999999999998 M 31.700000000000003 29.099999999999998 M 33.7 29.099999999999998 L 37.7 29.099999999999998 M 37.7 29.099999999999998 M 39.7 29.099999999999998 L 43.7 29.099999999999998 M 43.7 29.099999999999998 M 45.7 29.099999999999998 L 49.7 29.099999999999998 M 49.7 29.099999999999998 M 51.7 29.099999999999998 L 55.7 29.099999999999998 M 55.7 29.099999999999998 M 57.7 29.099999999999998 L 61.7 29.099999999999998 M 61.7 29.099999999999998 M 63.7 29.099999999999998 L 67.7 29.099999999999998 M 67.7 29.099999999999998 M 69.7 29.099999999999998 L 73.7 29.099999999999998 M 73.7 29.099999999999998 M 75.7 29.099999999999998 L 79.7 29.099999999999998 M 79.7 29.099999999999998 M 81.7 29.099999999999998 L 85.7 29.099999999999998 M 85.7 29.099999999999998 M 87.7 29.099999999999998 L 91.7 29.099999999999998 M 91.7 29.099999999999998 M 93.7 29.099999999999998 L 97.7 29.099999999999998 M 97.7 29.099999999999998 M 99.7 29.099999999999998 L 103.7 29.099999999999998 M 103.7 29.099999999999998 M 105.7 29.099999999999998 L 106.7 29.099999999999998 L 106.7 26.099999999999998 M 106.7 26.099999999999998 M 106.7 24.099999999999998 L 106.7 20.099999999999998 M 106.7 20.099999999999998 M 106.7 18.099999999999998 L 106.7 14.099999999999998 M 106.7 14.099999999999998 M 106.7 12.099999999999998 L 106.7 8.099999999999998 M 106.7 8.099999999999998 M 106.7 6.099999999999998 L 106.7 2.099999999999998 M 106.7 2.099999999999998 M 105.9 0.8999999999999999 L 101.9 0.8999999999999999 M 101.9 0.8999999999999999 M 99.9 0.8999999999999999 L 95.9 0.8999999999999999 M 95.9 0.8999999999999999 M 93.9 0.8999999999999999 L 89.9 0.8999999999999999 M 89.9 0.8999999999999999 M 87.9 0.8999999999999999 L 83.9 0.8999999999999999 M 83.9 0.8999999999999999 M 81.9 0.8999999999999999 L 77.9 0.8999999999999999 M 77.9 0.8999999999999999 M 75.9 0.8999999999999999 L 71.9 0.8999999999999999 M 71.9 0.8999999999999999 M 69.9 0.8999999999999999 L 65.9 0.8999999999999999 M 65.9 0.8999999999999999 M 63.900000000000006 0.8999999999999999 L 59.900000000000006 0.8999999999999999 M 59.900000000000006 0.8999999999999999 M 57.900000000000006 0.8999999999999999 L 53.900000000000006 0.8999999999999999 M 53.900000000000006 0.8999999999999999 M 51.900000000000006 0.8999999999999999 L 47.900000000000006 0.8999999999999999 M 47.900000000000006 0.8999999999999999 M 45.900000000000006 0.8999999999999999 L 41.900000000000006 0.8999999999999999 M 41.900000000000006 0.8999999999999999 M 39.900000000000006 0.8999999999999999 L 35.900000000000006 0.8999999999999999 M 35.900000000000006 0.8999999999999999 M 33.900000000000006 0.8999999999999999 L 29.900000000000006 0.8999999999999999 M 29.900000000000006 0.8999999999999999 M 27.900000000000006 0.8999999999999999 L 23.900000000000006 0.8999999999999999 M 23.900000000000006 0.8999999999999999 M 21.900000000000006 0.8999999999999999 L 17.900000000000006 0.8999999999999999 M 17.900000000000006 0.8999999999999999 M 15.900000000000006 0.8999999999999999 L 11.900000000000006 0.8999999999999999 M 11.900000000000006 0.8999999999999999 M 9.900000000000006 0.8999999999999999 L 5.900000000000006 0.8999999999999999 M 5.900000000000006 0.8999999999999999 M 3.9000000000000057 0.8999999999999999 L 3.3000000000000003 0.8999999999999999 Z" stroke-miterlimit="10" stroke-width="2" opacity="0"/></g></g></g></g></g><g transform="scale(1,1) matrix(1,0,0,1,32.2,155) translate(2,8)"><text fill="rgb(255, 255, 255)" stroke="none" font-family="Arial" font-size="12px" font-style="normal" font-weight="normal" text-decoration="none" x="30.3666675567627" y="11">id="el3"</text></g></g></svg>